<?xml version="1.0" encoding="UTF-8" standalone="no"?>
<!-- Created with Inkscape (http://www.inkscape.org/) -->

<svg
   xmlns:dc="http://purl.org/dc/elements/1.1/"
   xmlns:cc="http://creativecommons.org/ns#"
   xmlns:rdf="http://www.w3.org/1999/02/22-rdf-syntax-ns#"
   xmlns:svg="http://www.w3.org/2000/svg"
   xmlns="http://www.w3.org/2000/svg"
   xmlns:sodipodi="http://sodipodi.sourceforge.net/DTD/sodipodi-0.dtd"
   xmlns:inkscape="http://www.inkscape.org/namespaces/inkscape"
   width="700mm"
   height="700mm"
   viewBox="0 0 700 700"
   version="1.1"
   id="svg109745"
   inkscape:export-filename="C:\Users\suitedoalex\sites\ac-milan-logo-0.png"
   inkscape:export-xdpi="148.6263"
   inkscape:export-ydpi="148.6263"
   inkscape:version="0.92.4 (5da689c313, 2019-01-14)"
   sodipodi:docname="ac-milan-logo.svg">
  <defs
     id="defs109739">
    <clipPath
       clipPathUnits="userSpaceOnUse"
       id="clipPath42">
      <path
         d="m 471.496,77.008 h 61.289 v 92.932 h -61.289 z"
         id="path40"
         inkscape:connector-curvature="0" />
    </clipPath>
  </defs>
  <sodipodi:namedview
     id="base"
     pagecolor="#ffffff"
     bordercolor="#666666"
     borderopacity="1.0"
     inkscape:pageopacity="0.0"
     inkscape:pageshadow="2"
     inkscape:zoom="0.12374369"
     inkscape:cx="2419.0612"
     inkscape:cy="1267.3483"
     inkscape:document-units="mm"
     inkscape:current-layer="layer1"
     showgrid="false"
     inkscape:window-width="1600"
     inkscape:window-height="837"
     inkscape:window-x="-8"
     inkscape:window-y="-8"
     inkscape:window-maximized="1" />
  <metadata
     id="metadata109742">
    <rdf:RDF>
      <cc:Work
         rdf:about="">
        <dc:format>image/svg+xml</dc:format>
        <dc:type
           rdf:resource="http://purl.org/dc/dcmitype/StillImage" />
        <dc:title></dc:title>
      </cc:Work>
    </rdf:RDF>
  </metadata>
  <g
     inkscape:label="Layer 1"
     inkscape:groupmode="layer"
     id="layer1"
     transform="translate(0,403)">
    <g
       transform="matrix(5.7053355,0,0,-5.7053355,-2514.88,650.55858)"
       id="g36"
       inkscape:export-xdpi="29.055613"
       inkscape:export-ydpi="29.055613">
      <g
         id="g38"
         clip-path="url(#clipPath42)">
        <g
           id="g44"
           transform="translate(534.3535,61.6302)">
          <path
             d="m 0,0 c 0.976,-0.355 1.323,-1.353 0.878,-2.575 -0.576,-1.584 -2.202,-2.582 -3.422,-2.138 -0.801,0.29 -1.186,1.405 -0.79,2.491 C -2.741,-0.592 -1.185,0.432 0,0 m -89.865,-21.342 c -0.489,-1.342 -1.867,-2.189 -2.9,-1.811 -0.679,0.246 -1.005,1.19 -0.669,2.111 0.502,1.38 1.821,2.247 2.824,1.882 0.827,-0.3 1.122,-1.147 0.745,-2.182 m 103.34,1.866 c -2.315,-1.951 -5.052,-3.439 -6.366,-3.439 -0.58,0 -0.948,0.307 -0.896,0.718 0.105,1.488 2.632,4.928 6.104,8.367 3.58,3.543 7.631,6.263 9.105,6.16 0.58,-0.05 0.842,-0.256 0.842,-0.718 0,-2.053 -3.947,-7.084 -8.789,-11.088 m -0.736,18.378 c 3.367,4.209 6.104,7.29 8.051,9.085 2.052,1.849 3.947,2.978 5.157,2.978 0.422,0 0.684,-0.257 0.684,-0.667 0,-2.055 -5.157,-7.701 -12.103,-13.09 -5.894,-4.62 -4.368,-3.389 -5.052,-3.954 -1.842,-1.436 -1.895,-1.488 -2.684,-1.95 3.052,3.953 4.315,5.596 5.947,7.598 m 37.844,-15.144 c -4.052,-3.491 -8.736,-6.572 -10.104,-6.572 -0.42,0 -0.737,0.309 -0.737,0.617 0,0.462 -0.105,0.256 1.842,2.773 l 4.999,5.646 c 1.211,1.386 2,3.131 2,4.465 0,1.746 -0.895,2.773 -2.526,2.773 -2.631,0 -5.683,-1.848 -11.314,-6.93 l -0.053,0.051 4.789,6.314 h -4.474 l -8.1,-10.293 c -0.592,-0.522 -1.294,-1.113 -2.115,-1.77 -2.788,-2.311 -4.946,-3.646 -5.841,-3.646 -0.422,0 -0.79,0.309 -0.79,0.617 0,0.359 1.157,2.105 2.895,4.312 l 8.42,10.78 h -4.578 l -2.264,-2.771 c 0.316,1.129 0.369,1.283 0.369,1.694 0,1.026 -0.684,1.539 -1.999,1.539 -3.001,0 -6.579,-1.232 -9.842,-3.336 -4.087,-2.642 -6.92,-6.246 -7.433,-9.34 -0.566,-0.455 -0.955,-0.728 -1.829,-1.337 -2.052,-1.489 -3.316,-2.106 -4.052,-2.106 -0.474,0 -0.737,0.257 -0.737,0.617 0,0.565 0.631,1.694 2.052,3.644 1.474,2.002 2.526,3.439 2.737,3.697 3.157,3.952 2.421,3.028 2.946,3.694 1.685,1.182 3.054,2.208 7.316,5.495 2.684,2.104 3.262,2.515 4.578,3.592 7.63,6.263 11.104,10.165 11.104,12.525 0,0.72 -0.579,1.181 -1.368,1.181 -1.895,0 -4.947,-1.591 -8.999,-4.67 C 12.211,3.06 7.686,-1.56 1.898,-8.85 c -3.107,-3.897 -4.9,-6.365 -5.873,-8.282 -0.916,-0.824 -1.712,-1.533 -2.6,-2.242 -2.21,-1.797 -5,-3.44 -5.736,-3.44 -0.369,0 -0.684,0.309 -0.684,0.617 0,0.411 -0.053,0.308 1.369,2.259 l 0.367,0.564 9.473,12.269 h -4.736 l -5.947,-7.649 c -1.459,-1.864 -2.274,-3.168 -2.66,-4.327 -3.025,-2.127 -5.532,-3.424 -6.765,-3.424 -0.526,0 -0.789,0.205 -0.789,0.667 0,0.411 0.263,0.924 1.105,2.31 1.369,2.157 1.895,2.875 10.683,14.99 l 1.473,2.053 1.474,2.002 c 0,0 0.474,0.565 1.315,1.747 4.158,5.543 3.054,4.055 3.843,5.132 2.894,3.85 3.841,5.082 5.367,6.622 -0.421,0.051 -0.684,0.051 -0.947,0.051 -2.947,0 -7,-2.823 -13.472,-9.24 -3.632,-3.644 -7.21,-7.649 -12.156,-13.654 -1.791,-2.208 -3.21,-3.902 -3.579,-4.364 -1.421,-1.642 -3.526,-4.055 -4.316,-4.979 -1.947,-2.105 -3.473,-3.388 -4.052,-3.388 -0.263,0 -0.42,0.205 -0.42,0.411 0,0.154 0.051,0.307 0.684,1.231 0.684,1.078 1.368,2.054 3.314,4.672 2.001,2.72 3.001,3.952 5.053,6.725 3.579,4.671 1.315,1.642 7.052,9.291 0.473,0.566 0.895,1.129 1.368,1.746 4.472,5.852 6.21,7.956 9.735,11.601 -0.315,0.051 -0.631,0.103 -0.789,0.103 -3.368,0 -7.736,-2.773 -14.419,-9.292 -2.526,-2.412 -3.684,-3.646 -9.735,-10.113 l -1.737,-1.9 -1.737,-1.847 -1.736,-1.9 -1.632,-1.744 -1.579,-1.694 c -2.947,-3.184 -1.999,-2.208 -2.841,-3.029 -3.158,-3.081 -5.264,-4.467 -6.842,-4.467 -0.895,0 -1.526,0.668 -1.526,1.541 0,0.615 0.316,1.026 0.737,1.026 0.158,0 0.315,-0.052 0.369,-0.103 0.42,-0.256 0.578,-0.308 0.999,-0.308 1.158,0 2.106,0.924 2.106,2.055 0,1.026 -0.685,1.692 -1.791,1.692 -1.947,0 -3.578,-1.847 -3.578,-4.106 0,-1.643 1.052,-2.721 2.684,-2.721 2.105,0 4.631,1.745 8.63,5.904 0.369,0.411 2.317,2.516 4.895,5.236 7.157,7.751 3.315,3.644 11.524,12.423 0.528,0.615 1.107,1.232 1.685,1.796 1.474,1.49 3.315,3.285 4.736,4.57 4.368,3.9 6.746,5.369 9.267,5.99 -0.896,-0.77 -0.786,-0.714 -2.259,-1.998 -6.315,-5.39 -10.955,-10.461 -15.481,-15.749 -5.894,-6.929 -8.735,-12.063 -8.735,-15.965 0,-1.18 0.578,-1.95 1.526,-1.95 0.894,0 1.947,0.565 3.157,1.694 1.684,1.591 4.263,4.414 6.316,6.931 l 1.209,1.488 1.158,1.437 1.211,1.438 c 1.736,2.156 3.367,4.056 4.841,5.8 3.841,4.415 7.736,8.522 10.578,11.088 4,3.748 5.777,4.831 7.93,5.542 -1,-0.974 -1.078,-1.047 -2.716,-2.595 -6.253,-5.909 -9.95,-10.596 -14.108,-15.472 -5.472,-6.417 -7.894,-10.729 -7.894,-14.169 0,-1.796 1.053,-3.079 2.526,-3.079 1.579,0 3.422,0.821 6.579,2.926 0.085,0.058 0.165,0.113 0.247,0.168 -0.02,-0.192 -0.031,-0.384 -0.031,-0.579 0,-1.642 0.999,-2.927 2.367,-2.927 1.369,0 3.684,1.182 6.421,3.287 0.725,0.578 1.373,1.12 1.956,1.631 -0.232,-0.762 -0.325,-1.466 -0.325,-2.197 0,-1.436 1.105,-2.669 2.368,-2.669 1.262,0 3.105,0.924 5.842,2.977 0.144,0.111 0.284,0.22 0.425,0.329 0.036,-1.861 1.282,-3.358 2.837,-3.358 1.526,0 3.632,0.874 5.684,2.259 1.211,0.823 2.052,1.593 3.894,3.388 -0.474,-1.231 -0.631,-1.898 -0.631,-2.72 0,-1.745 1.052,-2.927 2.578,-2.927 1.421,0 3.684,1.13 6.263,3.184 0.133,0.1 0.264,0.2 0.395,0.303 l -2.177,-2.767 h 4.735 l 2.527,3.233 c 1.42,1.849 3.736,4.21 6.893,6.983 4.105,3.747 7.105,5.544 9.105,5.544 0.367,0 0.684,-0.206 0.684,-0.462 -0.054,-0.617 0.157,-0.308 -2.579,-3.491 l -3.368,-3.799 c -2.317,-2.515 -3.21,-4.261 -3.21,-5.955 0,-1.438 1.211,-2.618 2.631,-2.618 1.368,0 2.999,0.719 5.578,2.515 2.527,1.746 4.473,3.235 5.631,4.312 z m -107.335,-5.1 c -0.489,-1.342 -1.866,-2.189 -2.9,-1.811 -0.679,0.246 -1.004,1.19 -0.669,2.111 0.502,1.38 1.821,2.247 2.825,1.882 0.826,-0.3 1.121,-1.147 0.744,-2.182 m -12.063,18.96 c 1.946,2.053 5.577,5.442 7.262,6.878 5.21,4.364 11.261,7.341 14.735,7.341 1.579,0 2.736,-0.821 2.736,-1.898 0,-2.67 -3.579,-6.315 -9.209,-9.344 -5.105,-2.721 -9.473,-4.004 -17.314,-4.978 1.263,1.539 0.684,0.872 1.79,2.001 m 11.893,-9.805 c 0,2.311 -2.158,3.953 -5.158,3.953 -5.579,0 -11.472,-4.877 -14.103,-11.551 l 0.631,-0.153 c 3.631,6.622 9.051,10.78 13.999,10.78 2.104,0 3.736,-1.283 3.736,-2.978 0,-5.082 -8.42,-10.882 -15.735,-10.882 -3.579,0 -5.631,1.591 -5.631,4.312 0,3.44 2.578,7.905 7.788,13.501 7.894,0.924 13.157,2.361 18.366,5.082 5.894,3.079 9.737,7.033 9.737,10.01 0,1.643 -1.474,2.669 -3.736,2.669 -7.79,0 -18.525,-6.212 -29.102,-16.735 -2.638,0.803 -3.943,2.609 -3.542,5.569 0.837,6.161 9.562,11.49 17.993,11.546 0.691,0.004 1.444,-0.027 2.066,-0.069 l 1.313,0.552 c -1.401,0.152 -3.115,0.292 -4.254,0.304 -9.708,0.098 -17.632,-5.978 -18.259,-11.819 -0.378,-3.519 0.65,-5.63 3.998,-6.801 -3.999,-4.928 -5.525,-8.163 -5.525,-11.91 0,-4.21 3.315,-6.981 8.472,-6.981 8.157,0 16.946,6.006 16.946,11.601 m -31.473,11.448 c -4.158,-4.928 -7.106,-8.778 -12.474,-16.223 0.685,2.722 1.001,5.134 1.001,7.342 0,1.283 -0.053,1.95 -0.316,3.029 l 0.158,0.206 0.368,0.358 c 0,0 0.631,0.668 1.947,2.054 l 2,2.053 c 5.052,5.235 6.42,6.57 8.894,8.624 4.104,3.439 6.999,5.082 9.104,5.133 -1.315,-1.489 -1.21,-1.386 -3.368,-3.901 -0.843,-0.975 0.842,1.027 -5.315,-6.263 z m -21.315,-15.606 c 2.263,2.156 3.579,3.44 4.527,4.466 2.157,2.259 3.631,3.851 3.788,4.004 l 0.421,0.411 c 0.158,-0.668 0.212,-0.976 0.212,-1.746 0,-3.798 -0.896,-7.905 -2.264,-10.523 -2.578,0.462 -5.052,1.694 -6.684,3.388 m -5.051,10.678 c 0,4.055 2.473,7.34 5.525,7.34 3.579,0 7,-3.388 8.052,-7.957 -0.263,-0.307 -0.474,-0.513 -0.526,-0.563 -6.263,-6.725 -4.474,-4.878 -5.368,-5.751 -1,-0.924 -1.789,-1.694 -3.316,-3.13 -2.894,3.079 -4.367,6.467 -4.367,10.061 m 38.153,17.863 0.211,0.309 c -0.527,0.051 -0.948,0.102 -1.212,0.102 -1.63,0 -3.946,-0.974 -6.419,-2.72 -3.737,-2.67 -5.947,-4.671 -12.209,-11.089 -4.999,-5.133 -3.631,-3.747 -4.21,-4.312 -1.263,4.826 -5.21,8.522 -9.051,8.522 -3.579,0 -6.473,-3.593 -6.473,-8.06 0,-3.953 1.894,-8.418 4.841,-11.344 -3.789,-3.593 -9.156,-6.418 -12.157,-6.418 -1.736,0 -2.947,0.925 -2.947,2.158 0,0.871 0.579,1.693 1.211,1.693 0.158,0 0.368,-0.103 0.631,-0.256 0.369,-0.257 0.579,-0.309 0.895,-0.309 0.895,0 1.684,0.874 1.684,1.9 0,0.872 -0.631,1.489 -1.579,1.489 -1.947,0 -3.736,-2.055 -3.736,-4.261 0,-1.9 1.579,-3.234 3.736,-3.234 2.316,0 4.947,1.026 8.526,3.336 1.894,1.232 3.052,2.104 4.42,3.389 2,-1.848 4.368,-3.08 6.947,-3.594 l -1.579,-2.515 h 5.052 l 1.421,2.309 c 3.21,0.668 5.42,1.952 7.052,4.108 l -0.58,0.512 c -1.946,-2.105 -4.052,-3.387 -5.788,-3.541 0.895,1.694 1.631,2.823 4.21,6.776 1.262,1.95 -0.421,-0.616 5.473,8.162 3.21,4.826 3.946,5.903 6.946,10.164 2.579,3.646 3.632,5.133 4.684,6.724"
             style="fill:#ffffff;fill-opacity:1;fill-rule:evenodd;stroke:none"
             id="path46"
             inkscape:connector-curvature="0" />
        </g>
        <g
           id="g48"
           transform="translate(473.4256,123.7708)">
          <path
             d="M 0,0 C 0.015,25.186 12.579,45.784 28.515,45.853 44.455,45.784 57.014,25.186 57.031,0 57.014,-25.179 44.455,-45.778 28.515,-45.848 12.579,-45.778 0.015,-25.179 0,0"
             style="fill:#000000;fill-opacity:1;fill-rule:nonzero;stroke:none"
             id="path50"
             inkscape:connector-curvature="0" />
        </g>
        <g
           id="g52"
           transform="translate(477.3145,123.7708)">
          <path
             d="M 0,0 C 0.012,23.053 10.861,41.904 24.626,41.965 38.393,41.904 49.241,23.053 49.253,0 49.241,-23.047 38.393,-41.896 24.626,-41.96 10.861,-41.896 0.012,-23.047 0,0"
             style="fill:#ffffff;fill-opacity:1;fill-rule:nonzero;stroke:none"
             id="path54"
             inkscape:connector-curvature="0" />
        </g>
        <g
           id="g56"
           transform="translate(497.0724,93.5286)">
          <path
             d="m 0,0 c -0.587,0.107 -1.336,-0.121 -1.475,-0.935 -0.129,-0.721 0.361,-1.299 1.1,-1.43 C 0.464,-2.513 0.98,-1.919 1.07,-1.4 1.165,-0.868 0.899,-0.157 0,0 M 1.458,1.862 C 1.558,2.434 1.132,2.88 0.613,2.974 -0.115,3.103 -0.624,2.798 -0.722,2.248 -0.797,1.804 -0.463,1.24 0.232,1.119 0.865,1.005 1.362,1.322 1.458,1.862 m -2.055,-5.41 c -2.111,0.373 -2.618,1.764 -2.438,2.793 0.067,0.377 0.241,1.377 1.578,1.682 C -2.05,1.337 -2.312,1.876 -2.19,2.576 -1.965,3.859 -0.715,4.43 0.716,4.177 2.412,3.873 3.152,2.792 2.969,1.755 2.858,1.11 2.474,0.608 1.76,0.411 2.483,-0.093 2.838,-0.648 2.667,-1.619 2.501,-2.572 1.574,-3.937 -0.597,-3.548"
             style="fill:#000000;fill-opacity:1;fill-rule:nonzero;stroke:none"
             id="path58"
             inkscape:connector-curvature="0" />
        </g>
        <g
           id="g60"
           transform="translate(511.4929,94.9811)">
          <path
             d="M 0,0 C 0.543,0.185 1.022,0.74 0.732,1.592 0.45,2.406 -0.108,2.774 -0.912,2.5 -1.304,2.367 -2.099,1.889 -1.748,0.863 -1.379,-0.212 -0.587,-0.204 0,0 m -0.759,-2.285 0.001,-0.008 c 0.364,-0.435 0.918,-0.585 1.517,-0.288 0.611,0.309 1.116,0.936 0.614,2.442 l -0.03,0.016 c -0.191,-0.611 -0.758,-0.938 -1.29,-1.12 -1.506,-0.515 -2.737,0.223 -3.148,1.417 -0.6,1.758 0.262,2.961 1.803,3.492 C 1.433,4.598 2.393,1.94 2.737,0.935 3.685,-1.832 2.554,-3.224 1.134,-3.711 -0.081,-4.129 -1.187,-3.859 -1.772,-2.988 Z"
             style="fill:#000000;fill-opacity:1;fill-rule:nonzero;stroke:none"
             id="path62"
             inkscape:connector-curvature="0" />
        </g>
        <g
           id="g64"
           transform="translate(492.2367,99.1451)">
          <path
             d="m 0,0 c -0.107,-0.318 -1.055,-1.109 -2.238,-0.704 l -0.222,0.077 -0.312,-0.9 0.007,-0.002 -0.15,-0.44 0.297,-0.102 c 0.797,-0.279 1.34,-0.279 1.705,-0.142 l -1.639,-4.804 1.56,-0.536 2.413,7.071 z"
             style="fill:#000000;fill-opacity:1;fill-rule:nonzero;stroke:none"
             id="path66"
             inkscape:connector-curvature="0" />
        </g>
        <g
           id="g68"
           transform="translate(504.3548,93.5607)">
          <path
             d="M 0,0 C 0.571,0.047 1.171,0.472 1.095,1.361 1.025,2.222 0.571,2.715 -0.268,2.648 -0.687,2.613 -1.572,2.351 -1.483,1.268 -1.389,0.132 -0.618,-0.05 0,0 m -1.295,-2.028 v -0.014 c 0.245,-0.503 0.743,-0.784 1.401,-0.643 0.662,0.145 1.309,0.627 1.19,2.214 l -0.025,0.018 c -0.332,-0.535 -0.963,-0.718 -1.522,-0.765 -1.587,-0.135 -2.601,0.883 -2.709,2.144 -0.153,1.851 0.981,2.804 2.602,2.94 2.871,0.243 3.155,-2.565 3.242,-3.63 0.239,-2.919 -1.197,-3.984 -2.692,-4.11 -1.281,-0.11 -2.288,0.426 -2.641,1.413 z"
             style="fill:#000000;fill-opacity:1;fill-rule:nonzero;stroke:none"
             id="path70"
             inkscape:connector-curvature="0" />
        </g>
        <g
           id="g72"
           transform="translate(505.2524,153.4128)">
          <path
             d="m 0,0 c -0.717,-0.777 -1.741,-1.265 -2.882,-1.265 -2.16,0 -3.915,1.755 -3.915,3.918 0,2.165 1.755,3.92 3.915,3.92 1.141,0 2.165,-0.49 2.882,-1.264 l 1.187,1.093 c -1.011,1.095 -2.46,1.783 -4.069,1.783 -3.051,0 -5.529,-2.476 -5.529,-5.532 0,-3.055 2.478,-5.531 5.529,-5.531 1.613,0 3.069,0.688 4.077,1.792 z"
             style="fill:#000000;fill-opacity:1;fill-rule:nonzero;stroke:none"
             id="path74"
             inkscape:connector-curvature="0" />
        </g>
        <g
           id="g76"
           transform="translate(506.8435,150.108)">
          <path
             d="M 0,0 2.759,9.034 4.077,8.149 5.218,2.723 6.586,6.118 7.539,5.355 10.579,-4.913 c -0.641,0.511 -1.311,0.99 -2,1.436 L 6.823,2.479 5.155,-1.631 C 4.88,-1.511 4.601,-1.393 4.322,-1.28 L 3.136,4.905 1.537,-0.358 C 1.03,-0.225 0.518,-0.104 0,0"
             style="fill:#000000;fill-opacity:1;fill-rule:nonzero;stroke:none"
             id="path78"
             inkscape:connector-curvature="0" />
        </g>
        <g
           id="g80"
           transform="translate(493.4116,156.7137)">
          <path
             d="m 0,0 -2.3,-4.748 3.331,1.326 z M -7.351,-11.844 -1.084,1.152 0.902,2.428 3.618,-6.608 C 3.11,-6.71 2.6,-6.828 2.099,-6.962 l -0.61,2.027 -4.807,-1.914 -1.54,-3.176 c -0.868,-0.554 -1.702,-1.162 -2.493,-1.819"
             style="fill:#000000;fill-opacity:1;fill-rule:nonzero;stroke:none"
             id="path82"
             inkscape:connector-curvature="0" />
        </g>
        <g
           id="g84"
           transform="translate(502.0649,83.6327)">
          <path
             d="M 0,0 -0.001,-0.002 H -0.118 L -0.129,0 c -6.296,0.003 -12.031,4.462 -16.192,11.721 -2.609,4.549 -4.571,10.217 -5.69,16.533 4.218,-7.752 12.439,-13.017 21.888,-13.017 9.448,0 17.667,5.263 21.887,13.017 C 20.644,21.941 18.687,16.27 16.078,11.721 11.938,4.502 6.249,0.053 0,0 m -0.136,80.289 v -0.002 c 0.009,0 0.018,0.002 0.029,0.002 6.29,-0.002 12.021,-4.459 16.185,-11.724 2.615,-4.559 4.574,-10.24 5.692,-16.57 C 18.625,57.781 13.253,62.18 6.801,64.049 L 6.72,64.083 v -0.016 c -2.177,0.622 -4.466,0.975 -6.843,0.975 -9.458,0 -17.682,-5.273 -21.901,-13.039 1.118,6.33 3.085,12.005 5.703,16.562 4.161,7.26 9.893,11.719 16.185,11.724 m 15.54,-43.693 h 7.505 C 22.072,31.124 19.352,26.281 15.404,22.763 Z m 7.392,7.853 -7.391,-0.004 -0.005,13.073 c 3.765,-3.355 6.431,-7.907 7.396,-13.069 m -21.633,0 V 63.397 C 3.09,63.292 4.944,62.931 6.719,62.387 V 62.184 L 6.716,44.449 Z M 6.72,36.593 6.714,18.12 V 17.889 C 4.942,17.349 3.088,16.984 1.163,16.879 v 19.722 z m -6.844,45.885 c -14.104,-0.079 -25.134,-19.108 -25.152,-42.34 0.018,-23.232 11.048,-42.26 25.152,-42.337 14.106,0.077 25.133,19.105 25.15,42.337 -0.017,23.232 -11.044,42.261 -25.15,42.34"
             style="fill:#000000;fill-opacity:1;fill-rule:nonzero;stroke:none"
             id="path86"
             inkscape:connector-curvature="0" />
        </g>
        <g
           id="g88"
           transform="translate(503.228,121.4641)">
          <path
             d="m 0,0 v 5.388 h 6.78 l 0.005,18.771 c 2.265,-0.834 4.35,-2.015 6.221,-3.468 l 0.006,-15.308 8.803,0.005 c 0.133,-1.011 0.227,-2.033 0.227,-3.081 0,-0.783 -0.04,-1.552 -0.115,-2.313 h -8.916 v -16.067 c -1.873,-1.455 -3.963,-2.639 -6.231,-3.475 l 0.006,19.539 z"
             style="fill:#c90c0f;fill-opacity:1;fill-rule:nonzero;stroke:none"
             id="path90"
             inkscape:connector-curvature="0" />
        </g>
        <g
           id="g92"
           transform="translate(498.8802,146.8687)">
          <path
             d="m 0,0 v -46.196 c -1.501,0.198 -2.959,0.534 -4.356,1.002 V -1.002 C -2.959,-0.53 -1.501,-0.195 0,0"
             style="fill:#c90c0f;fill-opacity:1;fill-rule:nonzero;stroke:none"
             id="path94"
             inkscape:connector-curvature="0" />
        </g>
        <g
           id="g96"
           transform="translate(490.1731,143.8811)">
          <path
             d="m 0,0 v -40.22 c -1.576,0.926 -3.033,2.022 -4.346,3.28 V -3.28 C -3.033,-2.023 -1.576,-0.924 0,0"
             style="fill:#c90c0f;fill-opacity:1;fill-rule:nonzero;stroke:none"
             id="path98"
             inkscape:connector-curvature="0" />
        </g>
        <g
           id="g100"
           transform="translate(478.623,123.7708)">
          <path
             d="M 0,0 C 0,4.052 1.036,7.862 2.854,11.182 V -11.179 C 1.036,-7.859 0,-4.051 0,0"
             style="fill:#c90c0f;fill-opacity:1;fill-rule:nonzero;stroke:none"
             id="path102"
             inkscape:connector-curvature="0" />
        </g>
        <g
           id="g104"
           transform="translate(527.0911,123.7708)">
          <path
             d="M 0,0 C -0.017,-23.232 -11.044,-42.26 -25.15,-42.337 -39.255,-42.26 -50.284,-23.232 -50.302,0 -50.284,23.232 -39.255,42.261 -25.15,42.34 -11.044,42.261 -0.017,23.232 0,0 m -52.743,0 v 0 c -0.002,12.455 3.124,23.731 8.147,31.855 5.03,8.133 11.915,13.079 19.446,13.075 7.529,0.004 14.414,-4.942 19.444,-13.075 C -0.682,23.731 2.443,12.455 2.44,0 c 0.003,-12.452 -3.122,-23.725 -8.146,-31.847 -5.03,-8.132 -11.915,-13.08 -19.444,-13.076 -7.531,-0.004 -14.416,4.944 -19.446,13.076 -5.023,8.122 -8.149,19.395 -8.147,31.847"
             style="fill:#c90c0f;fill-opacity:1;fill-rule:evenodd;stroke:none"
             id="path106"
             inkscape:connector-curvature="0" />
        </g>
      </g>
    </g>
  </g>
</svg>
