<?xml version="1.0" encoding="UTF-8" standalone="no"?>
<svg
   xmlns:dc="http://purl.org/dc/elements/1.1/"
   xmlns:cc="http://creativecommons.org/ns#"
   xmlns:rdf="http://www.w3.org/1999/02/22-rdf-syntax-ns#"
   xmlns:svg="http://www.w3.org/2000/svg"
   xmlns="http://www.w3.org/2000/svg"
   xmlns:sodipodi="http://sodipodi.sourceforge.net/DTD/sodipodi-0.dtd"
   xmlns:inkscape="http://www.inkscape.org/namespaces/inkscape"
   id="Capa_1"
   viewBox="0 0 700 700"
   version="1.1"
   sodipodi:docname="real-madrid-logo.svg"
   width="700"
   height="700"
   inkscape:version="0.92.0 r15299">
  <metadata
     id="metadata19">
    <rdf:RDF>
      <cc:Work
         rdf:about="">
        <dc:format>image/svg+xml</dc:format>
        <dc:type
           rdf:resource="http://purl.org/dc/dcmitype/StillImage" />
        <dc:title></dc:title>
      </cc:Work>
    </rdf:RDF>
  </metadata>
  <defs
     id="defs17">
    <clipPath
       clipPathUnits="userSpaceOnUse"
       id="clipPath44">
      <path
         d="M 0,0 H 595.276 V 841.89 H 0 Z"
         id="path42"
         inkscape:connector-curvature="0" />
    </clipPath>
  </defs>
  <sodipodi:namedview
     pagecolor="#ffffff"
     bordercolor="#666666"
     borderopacity="1"
     objecttolerance="10"
     gridtolerance="10"
     guidetolerance="10"
     inkscape:pageopacity="0"
     inkscape:pageshadow="2"
     inkscape:window-width="1920"
     inkscape:window-height="1017"
     id="namedview15"
     showgrid="false"
     inkscape:zoom="0.5"
     inkscape:cx="247.81203"
     inkscape:cy="-21.372414"
     inkscape:window-x="-8"
     inkscape:window-y="-8"
     inkscape:window-maximized="1"
     inkscape:current-layer="g40" />
  <style
     id="style2">.st1{fill:#e62644}.st3{fill:#004996}</style>
  <g
     id="g40"
     clip-path="url(#clipPath44)"
     transform="matrix(5.8718098,0,0,-5.8718098,-1967.6398,4899.9387)">
    <g
       id="g46"
       transform="matrix(1.1340758,0,0,1.1340758,407.75965,795.56897)">
      <path
         d="m 0,0 c -0.338,0 -0.612,0.275 -0.612,0.613 0,0.339 0.274,0.614 0.612,0.614 0.339,0 0.612,-0.275 0.612,-0.614 C 0.612,0.275 0.339,0 0,0 m -36.188,-28.472 c 0,13.604 11.102,24.677 24.678,24.677 13.574,0 24.678,-11.073 24.678,-24.677 0,-13.575 -11.104,-24.677 -24.678,-24.677 -13.575,0 -24.678,11.102 -24.678,24.677 M -1.83,9.198 c 0.589,-0.152 0.944,-0.751 0.792,-1.341 -0.151,-0.589 -0.75,-0.943 -1.34,-0.792 -0.589,0.152 -0.943,0.752 -0.792,1.34 0.151,0.59 0.751,0.944 1.34,0.793 m 1.001,2.163 c 0.339,0 0.613,-0.275 0.613,-0.613 0,-0.338 -0.274,-0.613 -0.613,-0.613 -0.338,0 -0.613,0.275 -0.613,0.613 0,0.338 0.275,0.613 0.613,0.613 m -0.508,2.191 c 0.337,0 0.612,-0.274 0.612,-0.613 0,-0.338 -0.275,-0.613 -0.612,-0.613 -0.338,0 -0.613,0.275 -0.613,0.613 0,0.339 0.275,0.613 0.613,0.613 M 6.248,7.773 c 0.337,0 0.612,-0.274 0.612,-0.612 0,-0.339 -0.275,-0.613 -0.612,-0.613 -0.34,0 -0.614,0.274 -0.614,0.613 0,0.338 0.274,0.612 0.614,0.612 M 5.74,9.964 c 0.338,0 0.613,-0.274 0.613,-0.613 0,-0.339 -0.275,-0.613 -0.613,-0.613 -0.339,0 -0.613,0.274 -0.613,0.613 0,0.339 0.274,0.613 0.613,0.613 m -0.915,1.922 c 0.339,0 0.613,-0.275 0.613,-0.613 0,-0.339 -0.274,-0.613 -0.613,-0.613 -0.338,0 -0.614,0.274 -0.614,0.613 0,0.338 0.276,0.613 0.614,0.613 m -1.454,1.709 c 0.338,0 0.613,-0.274 0.613,-0.613 0,-0.339 -0.275,-0.613 -0.613,-0.613 -0.339,0 -0.613,0.274 -0.613,0.613 0,0.339 0.274,0.613 0.613,0.613 m -1.788,1.298 c 0.338,0 0.613,-0.274 0.613,-0.613 0,-0.338 -0.275,-0.613 -0.613,-0.613 -0.339,0 -0.612,0.275 -0.612,0.613 0,0.339 0.273,0.613 0.612,0.613 m -1.922,0.752 c 0.339,0 0.613,-0.274 0.613,-0.612 0,-0.34 -0.274,-0.614 -0.613,-0.614 -0.339,0 -0.613,0.274 -0.613,0.614 0,0.338 0.274,0.612 0.613,0.612 m -1.96,-0.164 c 0.337,0 0.612,-0.274 0.612,-0.613 0,-0.338 -0.275,-0.612 -0.612,-0.612 -0.339,0 -0.614,0.274 -0.614,0.612 0,0.339 0.275,0.613 0.614,0.613 m -1.437,1.655 c 0.339,0 0.613,-0.274 0.613,-0.613 0,-0.338 -0.274,-0.613 -0.613,-0.613 -0.338,0 -0.612,0.275 -0.612,0.613 0,0.339 0.274,0.613 0.612,0.613 m -1.88,1.25 c 0.339,0 0.614,-0.274 0.614,-0.613 0,-0.338 -0.275,-0.612 -0.614,-0.612 -0.338,0 -0.612,0.274 -0.612,0.612 0,0.339 0.274,0.613 0.612,0.613 m -1.951,0.725 c 0.339,0 0.614,-0.275 0.614,-0.613 0,-0.338 -0.275,-0.613 -0.614,-0.613 -0.338,0 -0.612,0.274 -0.612,0.613 0,0.339 0.274,0.613 0.612,0.613 m -2.001,0.349 c 0.34,0 0.614,-0.274 0.614,-0.613 0,-0.338 -0.274,-0.612 -0.614,-0.612 -0.337,0 -0.612,0.274 -0.612,0.612 0,0.339 0.275,0.613 0.612,0.613 M -28.499,3.337 c -0.533,-0.293 -1.202,-0.099 -1.497,0.434 -0.292,0.532 -0.098,1.202 0.434,1.495 0.534,0.294 1.203,0.099 1.496,-0.434 0.294,-0.532 0.1,-1.201 -0.433,-1.495 m 7.858,3.728 c -0.59,-0.151 -1.19,0.203 -1.342,0.792 -0.151,0.59 0.204,1.189 0.793,1.341 0.588,0.151 1.189,-0.203 1.341,-0.793 0.151,-0.588 -0.204,-1.188 -0.792,-1.34 m 9.131,1.155 c -0.608,0 -1.101,0.493 -1.101,1.101 0,0.608 0.494,1.101 1.101,1.101 0.608,0 1.101,-0.493 1.101,-1.101 0,-0.608 -0.493,-1.101 -1.101,-1.101 m -10.681,1.915 c -0.339,0 -0.613,0.274 -0.613,0.613 0,0.338 0.274,0.613 0.613,0.613 0.338,0 0.613,-0.275 0.613,-0.613 0,-0.338 -0.275,-0.613 -0.613,-0.613 m 0.508,2.191 c -0.337,0 -0.612,0.275 -0.612,0.613 0,0.339 0.275,0.613 0.612,0.613 0.339,0 0.613,-0.274 0.613,-0.613 0,-0.338 -0.274,-0.613 -0.613,-0.613 m -7.583,-5.778 c -0.34,0 -0.614,0.274 -0.614,0.613 0,0.338 0.274,0.612 0.614,0.612 0.338,0 0.612,-0.274 0.612,-0.612 0,-0.339 -0.274,-0.613 -0.612,-0.613 m 0.507,2.19 c -0.339,0 -0.613,0.274 -0.613,0.613 0,0.339 0.274,0.613 0.613,0.613 0.338,0 0.613,-0.275 0.613,-0.613 0,-0.339 -0.275,-0.613 -0.613,-0.613 m 0.914,1.922 c -0.338,0 -0.612,0.274 -0.612,0.613 0,0.339 0.274,0.613 0.612,0.613 0.339,0 0.613,-0.275 0.613,-0.613 0,-0.339 -0.274,-0.613 -0.613,-0.613 m 1.455,1.709 c -0.34,0 -0.614,0.274 -0.614,0.613 0,0.339 0.274,0.613 0.614,0.613 0.338,0 0.612,-0.274 0.612,-0.613 0,-0.339 -0.274,-0.613 -0.612,-0.613 m 1.787,1.298 c -0.339,0 -0.614,0.275 -0.614,0.613 0,0.339 0.275,0.613 0.614,0.613 0.338,0 0.612,-0.274 0.612,-0.613 0,-0.338 -0.274,-0.613 -0.612,-0.613 m 1.922,0.752 c -0.339,0 -0.613,0.274 -0.613,0.614 0,0.338 0.274,0.612 0.613,0.612 0.339,0 0.613,-0.274 0.613,-0.612 0,-0.34 -0.274,-0.614 -0.613,-0.614 m 1.96,-0.163 c -0.338,0 -0.612,0.274 -0.612,0.612 0,0.339 0.274,0.613 0.612,0.613 0.339,0 0.614,-0.274 0.614,-0.613 0,-0.338 -0.274,-0.612 -0.614,-0.612 m 1.437,1.654 c -0.338,0 -0.614,0.275 -0.614,0.613 0,0.339 0.276,0.613 0.614,0.613 0.338,0 0.612,-0.274 0.612,-0.613 0,-0.338 -0.274,-0.613 -0.612,-0.613 m 1.879,1.251 c -0.338,0 -0.613,0.274 -0.613,0.612 0,0.339 0.275,0.613 0.613,0.613 0.339,0 0.613,-0.274 0.613,-0.613 0,-0.338 -0.274,-0.612 -0.613,-0.612 m 1.952,0.724 c -0.338,0 -0.613,0.275 -0.613,0.613 0,0.338 0.275,0.613 0.613,0.613 0.338,0 0.612,-0.274 0.612,-0.613 0,-0.338 -0.274,-0.613 -0.612,-0.613 m 3.943,-6.001 c -0.339,0 -0.613,0.275 -0.613,0.613 0,0.338 0.274,0.613 0.613,0.613 0.339,0 0.613,-0.275 0.613,-0.613 0,-0.338 -0.274,-0.613 -0.613,-0.613 m 0,2.223 c -0.339,0 -0.613,0.274 -0.613,0.613 0,0.339 0.274,0.614 0.613,0.614 0.339,0 0.613,-0.275 0.613,-0.614 0,-0.339 -0.274,-0.613 -0.613,-0.613 m 0,2.223 c -0.339,0 -0.613,0.274 -0.613,0.613 0,0.339 0.274,0.613 0.613,0.613 0.339,0 0.613,-0.275 0.613,-0.613 0,-0.339 -0.274,-0.613 -0.613,-0.613 m -1.942,1.905 c -0.339,0 -0.614,0.274 -0.614,0.612 0,0.339 0.275,0.613 0.614,0.613 0.337,0 0.612,-0.274 0.612,-0.613 0,-0.338 -0.275,-0.612 -0.612,-0.612 M 6.541,5.266 C 7.075,4.973 7.269,4.304 6.975,3.771 6.682,3.238 6.013,3.044 5.479,3.337 4.947,3.631 4.753,4.3 5.046,4.832 5.338,5.365 6.009,5.56 6.541,5.266 M -7.579,2.048 c -0.338,0 -0.613,0.275 -0.613,0.614 0,0.338 0.275,0.612 0.613,0.612 0.339,0 0.614,-0.274 0.614,-0.612 0,-0.339 -0.275,-0.614 -0.614,-0.614 M -23.02,0 c -0.338,0 -0.612,0.275 -0.612,0.613 0,0.339 0.274,0.614 0.612,0.614 0.339,0 0.613,-0.275 0.613,-0.614 C -22.407,0.275 -22.681,0 -23.02,0 m 7.579,2.048 c -0.338,0 -0.613,0.275 -0.613,0.614 0,0.338 0.275,0.612 0.613,0.612 0.339,0 0.613,-0.274 0.613,-0.612 0,-0.339 -0.275,-0.614 -0.613,-0.614"
         style="fill:#ffffff;fill-opacity:1;fill-rule:nonzero;stroke:none"
         id="path48"
         inkscape:connector-curvature="0" />
    </g>
    <g
       id="g50"
       transform="matrix(1.1340758,0,0,1.1340758,399.86943,802.89725)">
      <path
         d="m 0,0 c 0.164,-0.367 0.362,-0.65 0.608,-0.886 -0.558,0.084 -1.122,0.155 -1.688,0.211 0.316,0.178 0.592,0.42 0.805,0.709 C -0.187,0.014 -0.094,0.002 0,0 m -9.112,0 c 0.096,0.002 0.191,0.013 0.283,0.034 0.211,-0.289 0.488,-0.531 0.804,-0.709 -0.567,-0.056 -1.13,-0.127 -1.688,-0.211 0.261,0.251 0.468,0.554 0.601,0.886 m -3.273,-1.397 c -0.495,-0.115 -0.986,-0.241 -1.472,-0.377 0.262,0.341 0.43,0.751 0.479,1.186 0.252,-0.358 0.598,-0.637 0.993,-0.809 m -5.636,-1.84 c 0.148,0.24 0.256,0.503 0.317,0.775 l 0.084,0.018 c 0.148,0.038 0.283,0.099 0.404,0.177 0.232,-0.156 0.491,-0.274 0.764,-0.348 -0.53,-0.195 -1.053,-0.402 -1.569,-0.622 m 13.468,3.765 c 0.157,-0.414 0.427,-0.772 0.771,-1.038 -0.256,0.005 -0.513,0.009 -0.771,0.009 -0.257,0 -0.514,-0.004 -0.77,-0.009 0.344,0.266 0.613,0.624 0.77,1.038 M 8.111,-2.267 c 0.12,-0.078 0.256,-0.139 0.403,-0.177 l 0.084,-0.018 c 0.062,-0.272 0.17,-0.535 0.318,-0.775 -0.516,0.22 -1.039,0.427 -1.569,0.622 0.273,0.074 0.532,0.192 0.764,0.348 m -3.359,0.493 c -0.486,0.136 -0.977,0.262 -1.472,0.377 0.395,0.173 0.741,0.451 0.993,0.809 0.049,-0.435 0.217,-0.845 0.479,-1.186 M 6.658,3.021 C 7.072,3.194 7.385,3.565 7.475,4.017 8.132,3.871 8.876,3.675 9.481,3.438 10.052,3.213 10.498,2.909 10.824,2.627 11.158,1.781 11.343,0.799 11.442,-0.39 11.036,-0.561 10.787,-0.978 10.633,-1.382 10.391,-2.016 10.39,-2.665 11.069,-3.141 10.431,-3.182 9.876,-2.65 9.916,-1.99 c 0.127,0.152 0.224,0.333 0.276,0.538 C 10.383,-0.715 9.938,0.036 9.2,0.226 8.463,0.416 7.712,-0.03 7.521,-0.767 7.502,-0.847 7.489,-0.928 7.483,-1.009 6.86,-1.778 5.601,-1.38 5.551,-0.381 6.707,-0.61 7.193,-0.028 7.394,0.754 7.562,1.41 7.495,2.065 6.742,2.465 6.747,2.673 6.718,2.858 6.658,3.021"
         style="fill:#e2003d;fill-opacity:1;fill-rule:nonzero;stroke:none"
         id="path52"
         inkscape:connector-curvature="0" />
    </g>
    <g
       id="g54"
       transform="matrix(1.1340758,0,0,1.1340758,385.27671,809.40956)">
      <path
         d="M 0,0 C 2.192,1.217 5.061,1.433 7.288,1.104 V 0.943 C 7.169,0.756 7.099,0.532 7.099,0.293 c 0,-0.38 0.174,-0.718 0.446,-0.941 C 7.132,-0.792 6.811,-1.092 6.684,-1.643 5.855,-1.842 5.627,-2.46 5.627,-3.138 c 0,-0.807 0.325,-1.491 1.502,-1.557 -0.138,-0.443 -0.55,-0.764 -1.037,-0.764 -0.479,0 -0.885,0.309 -1.031,0.739 0.031,0.114 0.047,0.232 0.047,0.355 0,0.761 -0.616,1.378 -1.378,1.378 -0.761,0 -1.379,-0.617 -1.379,-1.378 0,-0.238 0.062,-0.461 0.167,-0.655 C 2.493,-5.481 2.174,-5.893 1.703,-6.014 1.231,-6.136 0.752,-5.927 0.508,-5.533 1.632,-5.176 1.777,-4.432 1.576,-3.65 1.406,-2.994 1.034,-2.453 0.18,-2.465 0.022,-2.162 -0.184,-1.961 -0.427,-1.843 -0.354,-1.205 -0.21,-0.586 0,0 M 9.342,1.104 C 11.568,1.433 14.437,1.217 16.63,0 c 0.21,-0.586 0.354,-1.205 0.426,-1.843 -0.242,-0.118 -0.448,-0.319 -0.606,-0.622 -0.853,0.012 -1.227,-0.529 -1.395,-1.185 -0.201,-0.782 -0.057,-1.526 1.067,-1.883 -0.244,-0.394 -0.723,-0.603 -1.196,-0.481 -0.47,0.121 -0.789,0.533 -0.814,0.994 0.106,0.194 0.166,0.417 0.166,0.655 0,0.761 -0.616,1.378 -1.378,1.378 -0.761,0 -1.379,-0.617 -1.379,-1.378 0,-0.123 0.017,-0.241 0.048,-0.355 -0.146,-0.43 -0.552,-0.739 -1.032,-0.739 -0.487,0 -0.899,0.321 -1.036,0.764 1.177,0.066 1.501,0.75 1.501,1.557 0,0.678 -0.227,1.296 -1.056,1.495 -0.128,0.551 -0.449,0.851 -0.861,0.995 0.272,0.223 0.446,0.561 0.446,0.941 0,0.239 -0.069,0.462 -0.189,0.65 z M -5.719,-2.304 c 0.604,0.237 1.35,0.432 2.007,0.579 0.09,-0.452 0.402,-0.823 0.817,-0.997 -0.06,-0.163 -0.09,-0.347 -0.085,-0.555 -0.753,-0.4 -0.819,-1.055 -0.65,-1.712 0.2,-0.782 0.686,-1.364 1.841,-1.134 -0.048,-1 -1.31,-1.397 -1.932,-0.628 -0.005,0.08 -0.018,0.161 -0.038,0.242 -0.19,0.737 -0.942,1.182 -1.679,0.992 -0.737,-0.189 -1.181,-0.94 -0.992,-1.677 0.053,-0.205 0.149,-0.387 0.277,-0.538 0.024,-0.407 -0.182,-0.81 -0.562,-1.019 -0.188,-0.104 -0.392,-0.146 -0.591,-0.133 0.678,0.477 0.677,1.125 0.436,1.76 -0.154,0.404 -0.403,0.82 -0.81,0.992 0.099,1.189 0.285,2.171 0.615,3.014 0.327,0.283 0.772,0.588 1.346,0.814 m 15.995,-7.04 -1.961,-0.732 -1.961,0.732 1.961,0.731 z M -4.484,-12 l -0.175,-0.683 -0.063,-0.26 -0.143,0.081 -0.643,0.358 0.171,0.657 0.034,0.143 0.225,-0.078 z m 25.599,0 0.824,0.311 0.035,-0.142 0.164,-0.673 -0.644,-0.359 -0.137,-0.073 -0.068,0.254 z"
         style="fill:#e2003d;fill-opacity:1;fill-rule:nonzero;stroke:none"
         id="path56"
         inkscape:connector-curvature="0" />
    </g>
    <g
       id="g58"
       transform="matrix(1.1340758,0,0,1.1340758,405.25879,800.88529)">
      <path
         d="M 0,0 C -0.262,0.341 -0.43,0.751 -0.479,1.186 -0.731,0.828 -1.077,0.55 -1.472,0.377 -0.977,0.262 -0.486,0.136 0,0 M 3.359,-0.493 C 3.127,-0.649 2.868,-0.767 2.595,-0.84 3.125,-1.035 3.648,-1.243 4.164,-1.463 4.016,-1.223 3.908,-0.96 3.846,-0.688 L 3.762,-0.67 C 3.615,-0.632 3.479,-0.571 3.359,-0.493 M -9.305,2.302 c -0.157,-0.414 -0.426,-0.772 -0.77,-1.038 0.256,0.006 0.513,0.009 0.77,0.009 0.258,0 0.515,-0.003 0.771,-0.009 -0.344,0.266 -0.614,0.624 -0.771,1.038 m -13.468,-3.765 c 0.516,0.22 1.039,0.428 1.569,0.623 -0.273,0.073 -0.533,0.191 -0.764,0.347 -0.121,-0.078 -0.256,-0.139 -0.404,-0.177 l -0.084,-0.018 c -0.061,-0.272 -0.169,-0.535 -0.317,-0.775 m 5.636,1.84 c -0.395,0.173 -0.741,0.451 -0.994,0.809 -0.048,-0.435 -0.216,-0.845 -0.478,-1.186 0.486,0.136 0.977,0.262 1.472,0.377 m 3.273,1.397 c -0.133,-0.332 -0.34,-0.635 -0.601,-0.886 0.558,0.084 1.121,0.155 1.688,0.211 -0.316,0.178 -0.593,0.421 -0.805,0.709 -0.091,-0.02 -0.186,-0.032 -0.282,-0.034 m 9.112,0 C -4.846,1.776 -4.939,1.788 -5.027,1.808 -5.24,1.519 -5.517,1.277 -5.833,1.099 -5.266,1.043 -4.703,0.972 -4.144,0.888 -4.39,1.124 -4.588,1.407 -4.722,1.717 Z M 8.747,0.579 C 8.215,0.872 7.544,0.677 7.252,0.145 6.958,-0.387 7.152,-1.057 7.685,-1.35 8.218,-1.644 8.887,-1.45 9.181,-0.917 9.474,-0.384 9.28,0.286 8.747,0.579 M 0.376,4.51 C -0.213,4.661 -0.814,4.307 -0.965,3.718 -1.116,3.129 -0.762,2.529 -0.173,2.378 0.417,2.226 1.016,2.58 1.168,3.17 1.319,3.759 0.965,4.359 0.376,4.51 m 1,2.163 c -0.338,0 -0.613,-0.275 -0.613,-0.613 0,-0.338 0.275,-0.613 0.613,-0.613 0.34,0 0.614,0.275 0.614,0.613 0,0.338 -0.274,0.613 -0.614,0.613 M 0.868,8.865 C 0.53,8.865 0.255,8.59 0.255,8.251 0.255,7.913 0.53,7.638 0.868,7.638 1.205,7.638 1.48,7.913 1.48,8.251 1.48,8.59 1.205,8.865 0.868,8.865 M 8.453,3.086 c -0.34,0 -0.614,-0.275 -0.614,-0.613 0,-0.339 0.274,-0.613 0.614,-0.613 0.337,0 0.612,0.274 0.612,0.613 0,0.339 -0.275,0.613 -0.612,0.613 m -0.508,2.19 c -0.339,0 -0.613,-0.274 -0.613,-0.612 0,-0.34 0.275,-0.614 0.613,-0.614 0.338,0 0.613,0.274 0.613,0.614 0,0.338 -0.275,0.612 -0.613,0.612 M 7.03,7.198 c -0.338,0 -0.613,-0.275 -0.613,-0.613 0,-0.338 0.275,-0.613 0.613,-0.613 0.339,0 0.613,0.275 0.613,0.613 0,0.339 -0.274,0.613 -0.613,0.613 M 5.576,8.907 c -0.339,0 -0.613,-0.274 -0.613,-0.612 0,-0.34 0.274,-0.614 0.613,-0.614 0.339,0 0.613,0.274 0.613,0.614 0,0.338 -0.274,0.612 -0.613,0.612 m -1.788,1.299 c -0.339,0 -0.612,-0.275 -0.612,-0.614 0,-0.338 0.273,-0.613 0.612,-0.613 0.339,0 0.614,0.275 0.614,0.613 0,0.339 -0.275,0.614 -0.614,0.614 m -1.921,0.751 c -0.34,0 -0.614,-0.274 -0.614,-0.612 0,-0.339 0.274,-0.613 0.614,-0.613 0.338,0 0.612,0.274 0.612,0.613 0,0.338 -0.274,0.612 -0.612,0.612 m -1.961,-0.164 c -0.339,0 -0.614,-0.274 -0.614,-0.613 0,-0.338 0.275,-0.612 0.614,-0.612 0.338,0 0.612,0.274 0.612,0.612 0,0.339 -0.275,0.613 -0.612,0.613 m -1.437,1.655 c -0.338,0 -0.612,-0.274 -0.612,-0.613 0,-0.338 0.274,-0.613 0.612,-0.613 0.34,0 0.614,0.275 0.614,0.613 0,0.339 -0.275,0.613 -0.614,0.613 m -1.879,1.251 c -0.339,0 -0.613,-0.274 -0.613,-0.614 0,-0.338 0.274,-0.612 0.613,-0.612 0.339,0 0.613,0.274 0.613,0.612 0,0.339 -0.275,0.614 -0.613,0.614 m -1.952,0.724 c -0.338,0 -0.611,-0.274 -0.611,-0.613 0,-0.339 0.273,-0.613 0.611,-0.613 0.339,0 0.614,0.275 0.614,0.613 0,0.339 -0.275,0.613 -0.614,0.613 m -2.001,0.349 c -0.337,0 -0.611,-0.274 -0.611,-0.612 0,-0.339 0.274,-0.613 0.611,-0.613 0.34,0 0.614,0.274 0.614,0.613 0,0.338 -0.274,0.612 -0.614,0.612 M -26.294,-1.35 c 0.533,0.293 0.727,0.962 0.434,1.495 -0.293,0.533 -0.963,0.727 -1.496,0.434 -0.532,-0.293 -0.727,-0.963 -0.434,-1.496 0.294,-0.533 0.963,-0.727 1.496,-0.433 m 7.858,3.728 c 0.588,0.151 0.943,0.751 0.792,1.339 -0.152,0.59 -0.752,0.944 -1.341,0.793 -0.589,-0.151 -0.944,-0.751 -0.793,-1.34 0.152,-0.59 0.752,-0.944 1.342,-0.792 m 9.131,1.154 c 0.608,0 1.101,0.494 1.101,1.102 0,0.607 -0.493,1.101 -1.101,1.101 -0.607,0 -1.101,-0.494 -1.101,-1.101 0,-0.608 0.494,-1.102 1.101,-1.102 m -10.681,1.915 c 0.338,0 0.613,0.275 0.613,0.613 0,0.338 -0.275,0.613 -0.613,0.613 -0.338,0 -0.613,-0.275 -0.613,-0.613 0,-0.338 0.275,-0.613 0.613,-0.613 m 0.509,2.191 c 0.338,0 0.612,0.275 0.612,0.613 0,0.339 -0.274,0.614 -0.612,0.614 -0.338,0 -0.613,-0.275 -0.613,-0.614 0,-0.338 0.275,-0.613 0.613,-0.613 M -27.061,1.86 c 0.338,0 0.612,0.274 0.612,0.613 0,0.338 -0.274,0.613 -0.612,0.613 -0.34,0 -0.614,-0.275 -0.614,-0.613 0,-0.339 0.275,-0.613 0.614,-0.613 m 0.507,2.19 c 0.338,0 0.613,0.274 0.613,0.614 0,0.338 -0.275,0.612 -0.613,0.612 -0.339,0 -0.613,-0.274 -0.613,-0.612 0,-0.34 0.274,-0.614 0.613,-0.614 m 0.914,1.922 c 0.34,0 0.614,0.275 0.614,0.613 0,0.339 -0.275,0.613 -0.614,0.613 -0.338,0 -0.612,-0.274 -0.612,-0.613 0,-0.338 0.274,-0.613 0.612,-0.613 m 1.455,1.709 c 0.338,0 0.612,0.274 0.612,0.614 0,0.338 -0.274,0.612 -0.612,0.612 -0.339,0 -0.613,-0.274 -0.613,-0.612 0,-0.34 0.274,-0.614 0.613,-0.614 m 1.787,1.298 c 0.338,0 0.612,0.275 0.612,0.613 0,0.339 -0.274,0.614 -0.612,0.614 -0.338,0 -0.613,-0.275 -0.613,-0.614 0,-0.338 0.275,-0.613 0.613,-0.613 m 1.923,0.753 c 0.338,0 0.612,0.273 0.612,0.613 0,0.338 -0.274,0.612 -0.612,0.612 -0.34,0 -0.614,-0.274 -0.614,-0.612 0,-0.339 0.274,-0.613 0.614,-0.613 m 1.959,-0.164 c 0.34,0 0.614,0.274 0.614,0.612 0,0.339 -0.274,0.613 -0.614,0.613 -0.338,0 -0.612,-0.274 -0.612,-0.613 0,-0.338 0.274,-0.612 0.612,-0.612 m 1.437,1.654 c 0.338,0 0.612,0.275 0.612,0.613 0,0.339 -0.274,0.613 -0.612,0.613 -0.338,0 -0.613,-0.274 -0.613,-0.613 0,-0.338 0.275,-0.613 0.613,-0.613 m 1.879,1.251 c 0.339,0 0.613,0.274 0.613,0.612 0,0.34 -0.274,0.614 -0.613,0.614 -0.338,0 -0.612,-0.274 -0.612,-0.614 0,-0.338 0.274,-0.612 0.612,-0.612 m 1.952,0.724 c 0.338,0 0.613,0.275 0.613,0.613 0,0.339 -0.275,0.613 -0.613,0.613 -0.338,0 -0.613,-0.274 -0.613,-0.613 0,-0.338 0.275,-0.613 0.613,-0.613 m 3.943,-6 c 0.339,0 0.613,0.274 0.613,0.612 0,0.339 -0.274,0.613 -0.613,0.613 -0.339,0 -0.613,-0.274 -0.613,-0.613 0,-0.338 0.274,-0.612 0.613,-0.612 m 0,2.222 c 0.339,0 0.613,0.275 0.613,0.613 0,0.339 -0.274,0.614 -0.613,0.614 -0.339,0 -0.613,-0.275 -0.613,-0.614 0,-0.338 0.274,-0.613 0.613,-0.613 m 0,2.223 c 0.339,0 0.613,0.274 0.613,0.613 0,0.339 -0.274,0.613 -0.613,0.613 -0.339,0 -0.613,-0.274 -0.613,-0.613 0,-0.339 0.274,-0.613 0.613,-0.613 m -1.942,1.905 c 0.338,0 0.613,0.274 0.613,0.613 0,0.338 -0.275,0.612 -0.613,0.612 -0.339,0 -0.614,-0.274 -0.614,-0.612 0,-0.339 0.275,-0.613 0.614,-0.613 M 5.6,-1.464 C 6.105,-1.743 6.507,-1.625 7.001,-1.443 6.181,-1.034 5.76,-0.663 6.125,0.299 6.293,0.738 6.499,1.059 6.967,1.201 6.673,4.954 5.628,6.752 2.218,8.454 L 1.969,8.383 C 1.974,8.34 1.978,8.296 1.978,8.251 1.978,7.735 1.693,7.49 1.327,7.204 1.937,7.077 2.487,6.798 2.487,6.06 2.487,5.448 2.074,5.11 1.542,4.952 1.714,4.615 1.745,4.471 1.719,4.08 2.414,3.748 2.571,3.306 2.388,2.593 2.129,1.584 1.516,1.481 0.554,1.72 0.414,0.147 2.141,-0.454 2.989,0.671 2.993,0.763 3.001,0.853 3.023,0.943 3.178,1.541 3.786,1.9 4.383,1.746 4.981,1.593 5.341,0.984 5.186,0.387 5.137,0.195 5.042,0.039 4.911,-0.107 4.856,-0.666 5.097,-1.187 5.6,-1.464 m -15.859,13.719 c 0,0.082 0.013,0.165 0.022,0.246 -4.462,0.326 -7.652,-2.709 -8.091,-6.995 0.399,-0.155 0.544,-0.332 0.727,-0.724 0.77,0.043 1.119,-0.267 1.303,-0.981 0.26,-1.009 -0.227,-1.394 -1.185,-1.649 0.289,-0.658 0.87,-1.1 1.632,-0.903 0.615,0.158 1,0.693 1.013,1.313 -0.107,0.185 -0.169,0.373 -0.169,0.589 0,0.617 0.501,1.117 1.117,1.117 0.617,0 1.117,-0.5 1.117,-1.117 0,-0.123 -0.024,-0.239 -0.059,-0.356 0.177,-0.588 0.675,-1 1.304,-1 0.787,0 1.239,0.573 1.356,1.282 -0.992,0.008 -1.559,0.26 -1.559,1.302 0,0.736 0.261,1.125 1.018,1.274 0.173,0.921 0.638,0.977 1.408,1.104 0.77,-0.127 1.236,-0.183 1.408,-1.104 0.757,-0.149 1.018,-0.538 1.018,-1.274 0,-1.041 -0.566,-1.294 -1.557,-1.302 0.115,-0.709 0.567,-1.282 1.354,-1.282 0.63,0 1.128,0.412 1.305,1 -0.036,0.117 -0.059,0.233 -0.059,0.356 0,0.617 0.5,1.117 1.116,1.117 0.618,0 1.117,-0.5 1.117,-1.117 0,-0.216 -0.061,-0.404 -0.169,-0.589 0.014,-0.62 0.398,-1.155 1.013,-1.313 0.763,-0.197 1.343,0.245 1.633,0.903 -0.959,0.255 -1.445,0.64 -1.186,1.649 0.184,0.714 0.533,1.024 1.303,0.981 0.183,0.392 0.328,0.569 0.727,0.724 -0.439,4.289 -3.631,7.321 -8.094,6.994 0.011,-0.082 0.025,-0.162 0.025,-0.245 0,-0.218 -0.067,-0.393 -0.188,-0.571 v -1.081 c 0.121,-0.177 0.188,-0.353 0.188,-0.571 0,-0.218 -0.067,-0.393 -0.188,-0.571 l 0.023,-1.114 c 0.104,-0.153 0.165,-0.338 0.165,-0.538 0,-0.639 -0.474,-0.83 -0.954,-1.043 -0.48,0.213 -0.954,0.404 -0.954,1.043 0,0.218 0.068,0.394 0.189,0.571 v 1.081 c -0.121,0.177 -0.189,0.354 -0.189,0.571 0,0.218 0.068,0.394 0.189,0.571 v 1.081 c -0.121,0.177 -0.189,0.353 -0.189,0.571 M -24.735,0.299 c 0.366,-0.961 -0.055,-1.332 -0.875,-1.742 0.495,-0.182 0.895,-0.3 1.402,-0.021 0.502,0.277 0.742,0.798 0.689,1.357 -0.132,0.146 -0.228,0.302 -0.277,0.494 -0.153,0.597 0.207,1.206 0.804,1.359 0.597,0.154 1.205,-0.206 1.359,-0.803 0.022,-0.09 0.031,-0.18 0.035,-0.272 0.846,-1.125 2.578,-0.524 2.433,1.049 -0.961,-0.24 -1.573,-0.135 -1.831,0.873 -0.184,0.713 -0.029,1.155 0.667,1.487 -0.025,0.391 0.007,0.535 0.178,0.872 -0.533,0.158 -0.945,0.496 -0.945,1.108 0,0.738 0.549,1.017 1.159,1.144 -0.365,0.285 -0.65,0.531 -0.65,1.047 0,0.046 0.004,0.091 -0.249,0.182 -3.475,-1.719 -4.444,-3.439 -4.741,-7.232 0.468,-0.142 0.675,-0.463 0.842,-0.902 M 4.761,-3.258 c -4.267,2.012 -9.036,3.137 -14.066,3.137 -5.03,0 -9.775,-1.118 -14.043,-3.13 -0.281,-0.131 -0.599,-0.008 -0.734,0.281 -0.135,0.286 0.008,0.502 0.129,0.754 -0.871,-0.268 -1.516,-0.267 -2.273,0.317 -1.403,-0.948 -3.018,1.004 -1.959,1.892 -0.498,0.649 -0.504,1.351 0.226,1.814 -0.129,0.223 -0.212,0.398 -0.212,0.666 0,0.735 0.547,1.016 1.155,1.143 -0.365,0.286 -0.648,0.532 -0.648,1.048 0,0.75 0.582,1.063 1.222,1.124 -0.177,0.266 -0.307,0.457 -0.307,0.797 0,0.613 0.496,1.109 1.109,1.109 0.193,0 0.376,-0.062 0.56,-0.113 -0.112,0.248 -0.215,0.434 -0.215,0.714 0,0.612 0.496,1.109 1.11,1.109 0.294,0 0.481,-0.11 0.733,-0.237 -0.021,0.131 -0.056,0.287 -0.056,0.425 0,0.614 0.498,1.111 1.11,1.111 0.338,0 0.536,-0.132 0.798,-0.314 0.125,0.582 0.449,1.065 1.125,1.065 0.496,0 0.778,-0.27 1.025,-0.655 0.265,0.293 0.511,0.491 0.934,0.491 0.169,0 0.331,-0.048 0.493,-0.086 -0.085,0.219 -0.166,0.391 -0.166,0.631 0,0.613 0.497,1.11 1.11,1.11 0.351,0 0.555,-0.148 0.837,-0.323 -0.024,0.135 -0.067,0.316 -0.067,0.463 0,0.614 0.497,1.11 1.109,1.11 0.355,0 0.558,-0.143 0.825,-0.342 0.129,0.581 0.449,1.067 1.127,1.067 0.411,0 0.646,-0.186 0.917,-0.458 0.218,0.463 0.52,0.807 1.084,0.807 0.162,0 0.292,-0.038 0.443,-0.089 0.343,0.392 0.647,0.565 1.129,0.689 v 1.178 h -0.935 v 0.69 h 0.935 v 0.843 h 0.74 v -0.843 h 0.937 v -0.69 h -0.937 v -1.178 c 0.483,-0.124 0.786,-0.297 1.129,-0.689 0.151,0.051 0.281,0.089 0.443,0.089 0.564,0 0.866,-0.344 1.084,-0.807 0.271,0.272 0.506,0.458 0.917,0.458 0.678,0 0.999,-0.485 1.127,-1.067 0.267,0.199 0.471,0.342 0.825,0.342 0.613,0 1.109,-0.496 1.109,-1.11 0,-0.147 -0.039,-0.324 -0.061,-0.461 0.281,0.175 0.481,0.321 0.831,0.321 0.614,0 1.11,-0.497 1.11,-1.11 0,-0.241 -0.08,-0.411 -0.166,-0.631 0.163,0.038 0.324,0.086 0.493,0.086 0.423,0 0.669,-0.197 0.934,-0.491 0.248,0.385 0.53,0.655 1.027,0.655 0.674,0 0.999,-0.485 1.127,-1.065 0.26,0.183 0.456,0.314 0.794,0.314 0.613,0 1.11,-0.497 1.11,-1.111 0,-0.138 -0.031,-0.292 -0.05,-0.425 0.253,0.13 0.431,0.237 0.728,0.237 0.613,0 1.11,-0.497 1.11,-1.109 0,-0.28 -0.104,-0.467 -0.217,-0.713 0.185,0.05 0.368,0.112 0.561,0.112 0.613,0 1.11,-0.496 1.11,-1.109 C 8.14,6.246 8.01,6.054 7.834,5.788 8.474,5.727 9.055,5.413 9.055,4.664 9.055,4.148 8.771,3.902 8.406,3.616 9.015,3.489 9.562,3.209 9.562,2.473 9.562,2.204 9.478,2.03 9.347,1.807 10.078,1.345 10.074,0.643 9.575,-0.007 10.212,-0.541 9.883,-1.372 9.34,-1.796 8.787,-2.228 8.225,-2.31 7.618,-1.899 6.859,-2.482 6.215,-2.484 5.343,-2.216 L 5.472,-2.485 C 5.685,-2.931 5.252,-3.44 4.761,-3.258 m -26.656,-1.115 -0.908,0.334 -0.067,0.145 c -0.073,-0.034 -0.134,-0.049 -0.184,-0.053 -0.24,-0.02 -0.227,0.256 -0.107,0.312 4.21,1.984 8.893,3.088 13.856,3.088 4.964,0 9.646,-1.104 13.856,-3.088 0.122,-0.058 0.14,-0.336 -0.106,-0.312 -0.049,0.005 -0.114,0.02 -0.185,0.053 L 4.193,-4.04 3.285,-4.373 3.553,-5.417 3.469,-5.596 c 0.48,-0.225 0.147,-0.561 -0.049,-0.469 -3.867,1.824 -8.166,2.829 -12.725,2.829 -4.558,0 -8.858,-1.005 -12.724,-2.829 -0.099,-0.046 -0.216,-0.004 -0.275,0.12 -0.055,0.121 -0.003,0.198 0.076,0.267 0.045,0.033 0.099,0.059 0.149,0.082 l -0.083,0.178 z m 5.03,0.767 1.936,1.351 -2.348,0.247 -1.937,-1.35 z m 19.07,-1.257 c 0.437,0 0.788,0.353 0.788,0.789 0,0.435 -0.351,0.789 -0.788,0.789 -0.435,0 -0.788,-0.354 -0.788,-0.789 0,-0.436 0.353,-0.789 0.788,-0.789 m -15.441,2.048 c 0.436,0 0.789,0.353 0.789,0.789 0,0.435 -0.353,0.788 -0.789,0.788 -0.435,0 -0.789,-0.353 -0.789,-0.788 0,-0.436 0.354,-0.789 0.789,-0.789 m -7.579,-2.048 c 0.436,0 0.789,0.353 0.789,0.789 0,0.435 -0.353,0.789 -0.789,0.789 -0.435,0 -0.788,-0.354 -0.788,-0.789 0,-0.436 0.353,-0.789 0.788,-0.789 m 15.441,2.048 c 0.436,0 0.79,0.353 0.79,0.789 0,0.435 -0.354,0.788 -0.79,0.788 -0.435,0 -0.788,-0.353 -0.788,-0.788 0,-0.436 0.353,-0.789 0.788,-0.789 m 3.63,-0.791 2.348,0.248 -1.937,1.35 -2.347,-0.247 z m -5.096,1.778 -2.465,0.919 -2.463,-0.919 2.463,-0.919 z M -34.828,-33.16 c 0,-14.041 11.481,-25.522 25.523,-25.522 14.041,0 25.523,11.481 25.523,25.522 0,14.072 -11.482,25.522 -25.523,25.522 -14.041,0 -25.523,-11.45 -25.523,-25.522 m 53.821,0 c 0,-15.57 -12.698,-28.298 -28.298,-28.298 -15.6,0 -28.298,12.728 -28.298,28.298 0,15.6 12.699,28.329 28.298,28.329 15.6,0 28.298,-12.729 28.298,-28.329 m -32.014,12.027 3.69,-3.769 3.459,3.657 c -1.213,0.324 -2.368,0.557 -3.632,0.596 -1.183,0.054 -2.372,-0.225 -3.517,-0.484 m 9.721,2.647 5.426,5.601 c 7.019,-4.021 11.742,-11.561 11.742,-20.183 0,-5.624 -1.991,-10.762 -5.34,-14.781 l -2.534,2.534 c 2.848,3.476 4.701,6.937 4.701,12.461 0,5.916 -3.09,12.511 -8.024,15.924 l -3.256,-3.331 c 1.67,-1.252 2.991,-2.513 4.111,-4.284 l -2.491,-2.152 c -0.99,1.732 -2.254,2.945 -3.895,4.061 l -6.48,-6.845 -6.724,6.937 c -3.487,-2.433 -5.536,-5.912 -5.63,-10.239 -0.114,-5.743 3.604,-9.749 8.823,-11.489 v 11.548 h 7.961 v -2.377 h -4.879 v -3.085 h 4.817 V -40.9 h -4.817 v -3.892 c 3.568,-0.185 7.364,1.88 9.679,4.445 l 2.385,-2.41 c -3.047,-3.534 -7.444,-5.328 -12.064,-5.357 v -3.557 h -3.082 v 3.929 c -7.04,1.752 -12.123,7.919 -12.029,15.282 0.063,5.056 2.749,9.19 6.658,12.138 l -3.303,3.415 c -5.116,-4.188 -7.864,-9.287 -8.097,-15.933 -0.179,-5.873 2.857,-10.58 4.768,-12.567 l -2.21,-2.259 c -3.438,4.011 -5.456,8.948 -5.456,14.598 0,8.56 4.722,16.098 11.681,20.12 l 5.49,-5.734 c 1.947,0.747 3.973,1.147 6.061,1.147 2.077,-0.029 3.883,-0.406 5.815,-1.144 z"
         style="fill:#fabb00;fill-opacity:1;fill-rule:nonzero;stroke:none"
         id="path60"
         inkscape:connector-curvature="0" />
    </g>
    <g
       id="g62"
       transform="matrix(1.1340758,0,0,1.1340758,398.60006,776.79173)">
      <path
         d="M 0,0 C -1.213,0.324 -2.368,0.557 -3.632,0.596 -4.816,0.65 -6.004,0.371 -7.15,0.112 l 3.691,-3.769 z m -1.608,-0.471 -1.862,-1.967 -1.998,2.041 c 0.685,0.114 1.347,0.17 1.804,0.149 0.704,-0.022 1.39,-0.092 2.056,-0.223 m -24.78,-14.941 c -0.185,1.161 -0.281,2.358 -0.281,3.589 0,8.56 4.722,16.098 11.681,20.12 L -9.497,2.563 C -7.55,3.31 -5.524,3.71 -3.436,3.71 -1.359,3.681 0.447,3.304 2.379,2.566 L 2.571,2.759 7.998,8.36 C 15.016,4.339 19.74,-3.201 19.74,-11.823 c 0,-1.22 -0.094,-2.417 -0.275,-3.587 v 0 c -0.653,-4.215 -2.443,-8.047 -5.066,-11.194 l -2.533,2.534 c 2.131,2.601 3.705,5.195 4.362,8.654 h 10e-4 c 0.221,1.161 0.338,2.419 0.338,3.807 0,5.916 -3.09,12.511 -8.025,15.924 L 5.287,0.984 C 6.956,-0.268 8.278,-1.529 9.397,-3.3 l -2.49,-2.152 c -0.99,1.732 -2.254,2.945 -3.895,4.061 l -6.48,-6.845 -6.724,6.937 c -3.487,-2.433 -5.536,-5.912 -5.631,-10.239 -0.028,-1.396 0.171,-2.69 0.563,-3.875 h 10e-4 c 1.22,-3.682 4.31,-6.297 8.26,-7.614 v 7.614 h -4.83 l 3.985,-4.062 v -2.365 c -3.27,1.257 -5.478,3.644 -6.495,6.427 l -0.418,10e-4 0.418,0.001 c -0.374,1.025 -0.587,2.105 -0.632,3.202 l 3.142,-3.204 4.83,10e-4 v 3.934 h 7.96 v -2.378 l -4.878,10e-4 v -1.558 -1.528 H 0.9 v -2.714 h -4.817 v -3.892 c 3.567,-0.185 7.364,1.88 9.679,4.445 l 2.384,-2.41 c -3.047,-3.534 -7.444,-5.327 -12.063,-5.356 v -3.558 h -3.082 v 3.929 c -5.652,1.407 -10.041,5.657 -11.505,11.084 l -0.639,10e-4 0.639,0.003 c -0.36,1.335 -0.543,2.741 -0.524,4.194 0.063,5.056 2.748,9.19 6.657,12.138 l -3.302,3.416 c -5.117,-4.189 -7.865,-9.288 -8.098,-15.934 -0.041,-1.34 0.086,-2.619 0.329,-3.818 l 0.354,-10e-4 h -0.354 c 0.82,-4.06 2.965,-7.214 4.44,-8.748 l -2.211,-2.258 c -2.688,3.136 -4.509,6.839 -5.175,11.007 l -0.86,-0.002 c 0.699,-4.606 2.766,-8.606 6.003,-12.247 l 3.44,3.515 c -2.37,2.249 -4.062,5.433 -4.766,8.734 v 0 c -0.269,1.263 -0.393,2.541 -0.355,3.791 0.079,2.251 0.468,4.368 1.175,6.341 l 2.354,-2.389 c -0.297,-1.136 -0.461,-2.32 -0.476,-3.534 -0.019,-1.436 0.158,-2.849 0.509,-4.209 h 0.001 c 1.432,-5.544 5.759,-10.18 11.519,-11.741 v -4.117 h 4.772 v 3.568 c 1,0.033 1.98,0.157 2.933,0.365 l 4.175,-4.266 2.237,-2.285 c 4.503,1.999 8.283,5.342 10.775,9.566 1.691,2.737 2.804,5.705 3.277,8.91 v 0 c 0.172,1.165 0.26,2.362 0.26,3.59 0,9.048 -4.926,16.902 -12.744,21.239 L 2.19,3.544 c -1.673,0.61 -3.552,0.982 -5.62,1.011 -1.919,0 -4.011,-0.341 -5.843,-1.004 l -5.558,5.805 c -7.75,-4.335 -12.683,-12.184 -12.683,-21.179 0,-1.238 0.09,-2.434 0.266,-3.59 z m 34.797,-10e-4 v 0 l -8.858,9.137 3.576,3.778 c 1.651,-1.2 2.611,-2.495 3.526,-4.29 l 3.837,3.315 C 9.41,-1.663 8.216,-0.24 6.56,1.077 L 8.644,3.21 c 3.484,-2.586 7.078,-8.419 7.078,-14.819 0,-1.396 -0.116,-2.648 -0.346,-3.804 l 0.325,-10e-4 -0.325,-10e-4 c -0.373,-1.874 -1.047,-3.502 -2.016,-5.105 z m -36.271,10e-4 c -0.164,1.143 -0.249,2.311 -0.249,3.497 0,13.605 11.102,24.677 24.678,24.677 13.574,0 24.678,-11.072 24.678,-24.677 0,-1.186 -0.085,-2.354 -0.249,-3.497 v 0 c -1.712,-11.934 -12.042,-21.18 -24.429,-21.18 -12.389,0 -22.718,9.246 -24.429,21.179 h -0.854 c 1.718,-12.401 12.427,-22.024 25.283,-22.024 12.854,0 23.564,9.623 25.282,22.024 v 0 c 0.159,1.144 0.241,2.312 0.241,3.498 0,14.072 -11.483,25.522 -25.523,25.522 -14.042,0 -25.523,-11.45 -25.523,-25.522 0,-1.186 0.082,-2.354 0.24,-3.498 z m 53.363,0.003 c 0.138,1.146 0.209,2.312 0.209,3.494 0,16.066 -13.076,29.174 -29.143,29.174 -16.068,0 -29.144,-13.108 -29.144,-29.174 0,-1.182 0.071,-2.349 0.209,-3.498 h 0.001 c 1.736,-14.401 14.052,-25.645 28.934,-25.645 14.882,0 27.199,11.246 28.934,25.645 l -0.852,-0.003 c -1.733,-13.932 -13.67,-24.797 -28.082,-24.797 -14.414,0 -26.35,10.866 -28.083,24.8 v 0 c -0.142,1.147 -0.216,2.314 -0.216,3.498 0,15.6 12.699,28.329 28.299,28.329 15.599,0 28.298,-12.729 28.298,-28.329 0,-1.185 -0.074,-2.353 -0.216,-3.498 z m -14.339,33.164 -1.05,-10e-4 c 0.104,-0.047 0.207,-0.096 0.311,-0.144 0.122,-0.058 0.14,-0.336 -0.106,-0.312 -0.05,0.005 -0.114,0.02 -0.185,0.053 L 10.064,17.205 9.157,16.872 9.424,15.828 9.341,15.65 c 0.48,-0.226 0.147,-0.562 -0.05,-0.47 -2.74,1.293 -5.698,2.174 -8.812,2.575 l -7.824,0.003 c -3.114,-0.404 -6.072,-1.285 -8.812,-2.578 -0.099,-0.046 -0.216,-0.004 -0.275,0.12 -0.056,0.121 -0.003,0.198 0.075,0.267 0.046,0.033 0.1,0.059 0.149,0.083 l -0.082,0.177 0.267,1.045 -0.908,0.334 -0.068,0.145 c -0.073,-0.034 -0.133,-0.049 -0.183,-0.053 -0.241,-0.02 -0.227,0.256 -0.108,0.312 0.104,0.048 0.208,0.097 0.312,0.145 l -1.059,-0.003 c 0.141,-0.065 0.299,-0.089 0.458,-0.062 -0.149,-0.249 0.011,-0.632 0.328,-0.671 l -0.208,-0.85 0.85,-0.473 c -0.11,-0.139 -0.14,-0.335 -0.06,-0.507 0.108,-0.227 0.368,-0.365 0.623,-0.246 3.832,1.808 8.094,2.804 12.613,2.804 4.52,0 8.781,-0.996 12.613,-2.804 0.255,-0.119 0.516,0.018 0.623,0.246 0.08,0.172 0.05,0.368 -0.061,0.507 l 0.85,0.473 -0.207,0.85 c 0.318,0.039 0.478,0.424 0.326,0.673 0.16,-0.024 0.314,0.001 0.451,0.063 m -27.632,-1.936 -0.143,0.08 -0.643,0.358 0.171,0.658 0.034,0.142 0.225,-0.077 0.593,-0.218 -0.174,-0.683 z m 26.859,0.438 -0.643,-0.358 -0.137,-0.074 -0.068,0.255 -0.175,0.682 0.825,0.311 0.034,-0.142 z m -1.524,0.914 c 0,0.233 -0.101,0.442 -0.261,0.584 l -0.345,0.001 c 0.25,-0.077 0.43,-0.31 0.43,-0.585 0,-0.339 -0.273,-0.614 -0.612,-0.614 -0.338,0 -0.613,0.275 -0.613,0.614 0,0.275 0.181,0.508 0.431,0.584 L 7.55,17.758 C 7.39,17.613 7.289,17.404 7.289,17.171 c 0,-0.436 0.352,-0.789 0.788,-0.789 0.436,0 0.788,0.353 0.788,0.789 m -4.737,0.468 1.093,0.116 H 3.962 Z m -15.122,0 0.166,0.116 h -1.259 z m -3.16,-0.468 c 0,0.233 -0.101,0.442 -0.262,0.584 l -0.345,0.001 c 0.25,-0.077 0.431,-0.31 0.431,-0.585 0,-0.339 -0.274,-0.614 -0.613,-0.614 -0.338,0 -0.613,0.275 -0.613,0.614 0,0.275 0.182,0.508 0.431,0.584 l -0.345,0.003 c -0.16,-0.145 -0.261,-0.354 -0.261,-0.587 0,-0.436 0.353,-0.789 0.788,-0.789 0.436,0 0.789,0.353 0.789,0.789"
         style="fill:#004c98;fill-opacity:1;fill-rule:nonzero;stroke:none"
         id="path64"
         inkscape:connector-curvature="0" />
    </g>
    <g
       id="g66"
       transform="matrix(1.1340758,0,0,1.1340758,372.92651,801.62414)">
      <path
         d="M 0,0 C 0.048,-0.22 0.159,-0.442 0.325,-0.658 -0.734,-1.547 0.881,-3.499 2.284,-2.55 3.041,-3.134 3.685,-3.135 4.557,-2.867 4.436,-3.12 4.293,-3.336 4.428,-3.621 c 0.135,-0.29 0.453,-0.413 0.734,-0.282 4.268,2.012 9.013,3.13 14.043,3.13 5.03,0 9.799,-1.124 14.066,-3.136 0.491,-0.183 0.923,0.326 0.711,0.773 l -0.129,0.269 c 0.872,-0.268 1.516,-0.267 2.275,0.317 0.607,-0.411 1.169,-0.33 1.722,0.103 0.542,0.424 0.872,1.255 0.235,1.789 0.166,0.216 0.278,0.439 0.325,0.656 L 38.682,0 C 38.65,-0.212 38.569,-0.424 38.438,-0.621 39.048,-1.255 38.52,-2.256 38.011,-2.654 37.51,-3.046 36.816,-3.278 36.138,-2.871 35.607,-3.247 34.937,-3.393 34.29,-3.263 34.345,-3.647 34.123,-3.997 33.8,-4.142 h -1.05 c -4.129,1.892 -8.703,2.944 -13.545,2.944 -4.841,0 -9.415,-1.051 -13.545,-2.944 H 4.601 C 4.427,-4.065 4.28,-3.922 4.191,-3.733 4.119,-3.581 4.098,-3.418 4.12,-3.263 3.473,-3.393 2.803,-3.247 2.273,-2.871 0.776,-3.77 -0.992,-1.623 -0.028,-0.621 -0.159,-0.424 -0.24,-0.211 -0.272,0 Z M 1.307,0 C 1.255,-0.022 1.203,-0.045 1.154,-0.073 0.621,-0.366 0.427,-1.036 0.719,-1.568 1.014,-2.102 1.683,-2.296 2.216,-2.002 2.749,-1.709 2.943,-1.039 2.65,-0.507 2.513,-0.259 2.296,-0.085 2.048,0.002 L 2.434,0 C 2.582,-0.111 2.709,-0.252 2.803,-0.422 3.143,-1.039 2.919,-1.816 2.301,-2.156 1.683,-2.496 0.907,-2.271 0.566,-1.653 0.25,-1.079 0.423,-0.367 0.945,0.003 Z m 2.601,0 c 0.042,-0.087 0.079,-0.173 0.112,-0.259 0.241,-0.635 0.242,-1.283 -0.436,-1.76 0.199,-0.013 0.403,0.029 0.591,0.133 0.38,0.209 0.586,0.612 0.562,1.019 C 4.61,-0.716 4.513,-0.534 4.461,-0.329 4.432,-0.218 4.418,-0.107 4.417,0.003 L 4.679,0 C 4.68,-0.089 4.692,-0.177 4.714,-0.264 4.763,-0.457 4.859,-0.612 4.99,-0.759 5.044,-1.317 4.804,-1.839 4.302,-2.116 3.795,-2.394 3.395,-2.276 2.9,-2.095 c 0.82,0.41 1.241,0.781 0.875,1.743 -0.049,0.128 -0.101,0.247 -0.163,0.354 z M 7.273,0 C 7.707,-0.409 8.36,-0.362 8.757,-0.002 L 9.093,0 C 8.604,-0.699 7.54,-0.793 6.926,0.001 Z m 2.983,0 c -0.083,-0.233 -0.204,-0.454 -0.355,-0.652 0.486,0.137 0.977,0.262 1.472,0.377 -0.167,0.073 -0.324,0.165 -0.47,0.273 L 11.4,0 c 0.157,-0.075 0.325,-0.132 0.498,-0.168 L 11.9,-0.424 C 11.093,-0.6 10.298,-0.804 9.513,-1.036 l -0.122,0.225 c 0.256,0.22 0.456,0.498 0.583,0.807 z m 3.996,0 c -0.221,-0.03 -0.441,-0.064 -0.66,-0.1 L 13.553,0 Z m 10.605,0 -0.038,-0.1 c -0.22,0.036 -0.44,0.07 -0.661,0.102 z m 2.65,0 c -0.146,-0.11 -0.303,-0.202 -0.469,-0.274 0.495,-0.116 0.986,-0.241 1.472,-0.378 -0.152,0.198 -0.272,0.419 -0.356,0.654 L 28.437,0 c 0.127,-0.313 0.326,-0.591 0.582,-0.811 l -0.122,-0.225 c -0.784,0.232 -1.579,0.436 -2.386,0.612 l 0.001,0.256 c 0.174,0.036 0.341,0.093 0.499,0.17 z m 2.147,0 c 0.397,-0.362 1.048,-0.409 1.483,0.002 L 31.484,0 c -0.615,-0.794 -1.677,-0.7 -2.166,0.003 z m 4.34,0 c -10e-4,-0.107 -0.015,-0.218 -0.044,-0.33 -0.053,-0.204 -0.149,-0.385 -0.276,-0.537 -0.04,-0.66 0.514,-1.193 1.153,-1.152 -0.679,0.477 -0.678,1.125 -0.437,1.76 0.033,0.086 0.07,0.172 0.113,0.257 L 34.798,0 c -0.061,-0.106 -0.114,-0.224 -0.163,-0.353 -0.366,-0.962 0.056,-1.332 0.876,-1.742 -0.494,-0.181 -0.896,-0.299 -1.402,-0.021 -0.503,0.277 -0.743,0.798 -0.688,1.357 0.131,0.147 0.226,0.303 0.275,0.495 0.023,0.087 0.035,0.175 0.036,0.261 z m 2.368,0 c -0.247,-0.085 -0.465,-0.259 -0.6,-0.507 -0.294,-0.532 -0.1,-1.201 0.432,-1.495 0.534,-0.294 1.203,-0.1 1.496,0.434 0.294,0.532 0.1,1.202 -0.434,1.495 -0.049,0.028 -0.101,0.051 -0.152,0.07 L 37.466,0 c 0.523,-0.367 0.694,-1.079 0.378,-1.653 -0.34,-0.618 -1.116,-0.843 -1.734,-0.503 -0.618,0.34 -0.843,1.116 -0.502,1.734 0.093,0.171 0.22,0.311 0.368,0.419 z M 7.169,-4.142 c 0.139,0.129 0.324,0.205 0.526,0.205 0.203,0 0.388,-0.076 0.527,-0.202 L 7.878,-4.142 c -0.058,0.02 -0.119,0.029 -0.183,0.029 -0.063,0 -0.124,-0.009 -0.182,-0.027 z m 3.382,0 -1.255,0.133 1.937,1.35 2.348,-0.248 -1.771,-1.235 z m 4.742,0 c 1.279,0.169 2.585,0.255 3.912,0.255 1.328,0 2.633,-0.086 3.912,-0.251 z m 11.307,0 -1.771,1.235 2.348,0.248 1.937,-1.35 -1.255,-0.133 z m 3.589,0 c 0.139,0.129 0.324,0.205 0.526,0.205 0.203,0 0.387,-0.076 0.527,-0.202 l -0.345,-0.003 c -0.057,0.02 -0.118,0.029 -0.182,0.029 -0.063,0 -0.125,-0.009 -0.182,-0.027 z m 1.602,3.263 0.078,0.057 c 0.152,-0.114 0.278,-0.197 0.467,-0.246 0.079,-0.019 0.161,-0.028 0.241,-0.038 0.09,-0.483 0.262,-0.875 0.6,-1.238 l -0.149,-0.209 c -0.811,0.358 -1.638,0.687 -2.482,0.984 l 0.035,0.254 c 0.44,0.029 0.864,0.183 1.21,0.436 m 0.077,-0.266 c -0.231,-0.156 -0.49,-0.273 -0.763,-0.347 0.529,-0.195 1.053,-0.403 1.569,-0.622 -0.148,0.24 -0.256,0.503 -0.318,0.775 l -0.084,0.018 c -0.147,0.037 -0.283,0.098 -0.404,0.176 M 5.382,-2.554 5.233,-2.345 c 0.339,0.364 0.51,0.755 0.6,1.239 0.316,0.041 0.433,0.079 0.709,0.284 0.397,-0.291 0.791,-0.46 1.287,-0.493 L 7.864,-1.569 C 7.021,-1.866 6.193,-2.195 5.382,-2.554 m 0.354,0.439 c 0.517,0.22 1.04,0.428 1.569,0.623 C 7.033,-1.418 6.773,-1.301 6.542,-1.145 6.421,-1.223 6.286,-1.284 6.138,-1.321 L 6.054,-1.339 C 5.993,-1.612 5.884,-1.874 5.736,-2.115 m 17.4,-1.352 c -0.436,0 -0.788,0.354 -0.788,0.789 0,0.435 0.352,0.789 0.788,0.789 0.436,0 0.79,-0.353 0.79,-0.789 0,-0.436 -0.354,-0.789 -0.79,-0.789 m 0,0.176 c 0.339,0 0.614,0.275 0.614,0.613 0,0.338 -0.275,0.613 -0.614,0.613 -0.338,0 -0.613,-0.274 -0.613,-0.613 0,-0.339 0.275,-0.613 0.613,-0.613 m -7.862,0 c 0.339,0 0.614,0.275 0.614,0.613 0,0.338 -0.275,0.613 -0.614,0.613 -0.338,0 -0.613,-0.274 -0.613,-0.613 0,-0.338 0.275,-0.613 0.613,-0.613 m 0,-0.176 c -0.435,0 -0.789,0.354 -0.789,0.789 0,0.436 0.354,0.789 0.789,0.789 0.435,0 0.789,-0.353 0.789,-0.789 0,-0.436 -0.354,-0.789 -0.789,-0.789 m 5.893,0.988 -1.962,0.731 -1.961,-0.731 1.961,-0.732 z m 0.503,0 -2.465,-0.919 -2.463,0.919 2.463,0.918 z"
         style="fill:#004c98;fill-opacity:1;fill-rule:nonzero;stroke:none"
         id="path68"
         inkscape:connector-curvature="0" />
    </g>
    <g
       id="g70"
       transform="matrix(1.1340758,0,0,1.1340758,373.89331,806.32953)">
      <path
         d="m 0,0 c -0.004,-0.045 -0.007,-0.09 -0.007,-0.137 0,-0.515 0.283,-0.761 0.648,-1.047 -0.608,-0.128 -1.154,-0.408 -1.154,-1.143 0,-0.268 0.082,-0.443 0.212,-0.666 -0.487,-0.309 -0.647,-0.724 -0.552,-1.158 l -0.272,0.002 c -0.073,0.474 0.096,0.945 0.478,1.24 -0.082,0.176 -0.128,0.373 -0.128,0.582 0,0.576 0.356,1.069 0.859,1.272 -0.219,0.243 -0.353,0.564 -0.353,0.918 0,0.045 0.003,0.09 0.007,0.134 z M 0.506,0 C 0.496,-0.043 0.49,-0.089 0.49,-0.137 c 0,-0.339 0.274,-0.614 0.613,-0.614 0.339,0 0.614,0.275 0.614,0.614 0,0.047 -0.006,0.094 -0.016,0.138 L 1.88,0 c 0.008,-0.043 0.012,-0.089 0.012,-0.137 0,-0.436 -0.353,-0.79 -0.789,-0.79 -0.436,0 -0.789,0.354 -0.789,0.79 0,0.048 0.005,0.094 0.013,0.14 z m 2.642,0 c -0.01,-0.018 -0.02,-0.039 -0.029,-0.06 0.027,0.021 0.055,0.041 0.083,0.061 L 3.514,0 C 3.307,-0.131 3.127,-0.269 2.973,-0.402 2.642,-1.245 2.457,-2.227 2.358,-3.416 2.678,-3.551 2.9,-3.838 3.056,-4.151 L 2.76,-4.149 C 2.612,-3.89 2.411,-3.7 2.081,-3.6 2.196,-2.128 2.412,-0.967 2.835,0.003 Z M 7.433,0 C 7.326,-0.24 7.307,-0.394 7.328,-0.72 6.633,-1.053 6.478,-1.494 6.661,-2.207 6.919,-3.216 7.531,-3.32 8.492,-3.081 8.532,-3.515 8.429,-3.876 8.241,-4.146 L 7.905,-4.149 c 0.195,0.176 0.329,0.429 0.344,0.742 -1.156,-0.23 -1.641,0.352 -1.842,1.134 -0.169,0.657 -0.103,1.312 0.651,1.711 -0.005,0.209 0.025,0.393 0.084,0.556 C 7.136,-0.003 7.129,0 7.122,0.003 Z m 3.636,0 c 0.283,-0.22 0.447,-0.558 0.544,-0.934 0.201,-0.782 0.057,-1.526 -1.067,-1.883 0.243,-0.394 0.723,-0.603 1.195,-0.481 0.471,0.121 0.79,0.533 0.815,0.994 -0.105,0.194 -0.167,0.417 -0.167,0.655 0,0.761 0.617,1.378 1.378,1.378 0.762,0 1.379,-0.617 1.379,-1.378 0,-0.123 -0.017,-0.242 -0.047,-0.355 0.145,-0.43 0.551,-0.739 1.03,-0.739 0.488,0 0.9,0.321 1.038,0.764 -1.177,0.065 -1.503,0.75 -1.503,1.557 0,0.146 0.011,0.289 0.036,0.425 L 15.963,0 c -0.025,-0.127 -0.037,-0.267 -0.037,-0.422 0,-1.042 0.568,-1.294 1.559,-1.301 -0.117,-0.71 -0.568,-1.282 -1.356,-1.282 -0.629,0 -1.127,0.411 -1.304,0.999 0.036,0.118 0.059,0.233 0.059,0.357 0,0.616 -0.5,1.116 -1.117,1.116 -0.616,0 -1.116,-0.5 -1.116,-1.116 0,-0.216 0.062,-0.404 0.169,-0.589 -0.014,-0.621 -0.399,-1.155 -1.014,-1.314 -0.762,-0.196 -1.343,0.245 -1.632,0.904 0.959,0.254 1.445,0.639 1.186,1.649 -0.185,0.713 -0.533,1.024 -1.304,0.98 -0.003,0.007 -0.006,0.013 -0.009,0.02 z m 6.196,0 c -0.009,-0.054 -0.013,-0.11 -0.013,-0.167 0,-0.608 0.493,-1.101 1.1,-1.101 0.609,0 1.101,0.493 1.101,1.101 0,0.057 -0.004,0.113 -0.012,0.167 h 0.177 c 0.007,-0.052 0.011,-0.109 0.011,-0.167 0,-0.705 -0.571,-1.277 -1.277,-1.277 -0.704,0 -1.276,0.572 -1.276,1.277 0,0.058 0.004,0.115 0.011,0.17 z m 3.74,0 c 0.025,-0.133 0.035,-0.276 0.035,-0.422 0,-0.807 -0.325,-1.492 -1.501,-1.557 0.137,-0.443 0.549,-0.764 1.036,-0.764 0.479,0 0.885,0.309 1.032,0.739 -0.031,0.113 -0.048,0.232 -0.048,0.355 0,0.761 0.618,1.378 1.379,1.378 0.762,0 1.378,-0.617 1.378,-1.378 0,-0.238 -0.061,-0.461 -0.167,-0.655 0.026,-0.461 0.344,-0.873 0.815,-0.994 0.472,-0.122 0.952,0.087 1.195,0.481 -1.123,0.357 -1.268,1.101 -1.067,1.883 0.097,0.376 0.261,0.715 0.544,0.932 L 26.658,0 c -0.003,-0.006 -0.006,-0.012 -0.009,-0.019 -0.77,0.044 -1.12,-0.267 -1.303,-0.98 -0.26,-1.01 0.226,-1.395 1.185,-1.649 -0.289,-0.659 -0.87,-1.1 -1.632,-0.904 -0.616,0.159 -1,0.693 -1.014,1.314 0.108,0.185 0.169,0.373 0.169,0.589 0,0.617 -0.499,1.116 -1.116,1.116 -0.617,0 -1.117,-0.5 -1.117,-1.116 0,-0.124 0.023,-0.239 0.06,-0.356 -0.178,-0.589 -0.676,-1 -1.306,-1 -0.787,0 -1.239,0.573 -1.354,1.282 0.992,0.007 1.557,0.26 1.557,1.301 0,0.155 -0.011,0.295 -0.037,0.42 z m 8.579,0 c -0.007,0 -0.014,-0.003 -0.021,-0.006 0.06,-0.163 0.089,-0.347 0.085,-0.556 0.752,-0.399 0.819,-1.054 0.651,-1.711 -0.201,-0.782 -0.686,-1.364 -1.843,-1.134 0.016,-0.313 0.15,-0.566 0.345,-0.744 l -0.336,0.002 c -0.188,0.273 -0.292,0.634 -0.253,1.068 0.962,-0.239 1.574,-0.136 1.833,0.874 0.184,0.713 0.027,1.154 -0.669,1.487 0.022,0.326 0.004,0.48 -0.103,0.719 z m 3.926,0 c 0.024,-0.02 0.049,-0.038 0.073,-0.056 -0.008,0.017 -0.016,0.035 -0.025,0.052 L 33.845,0 c 0.437,-0.976 0.665,-2.14 0.779,-3.6 -0.33,-0.1 -0.53,-0.29 -0.678,-0.548 L 33.65,-4.149 c 0.155,0.311 0.377,0.598 0.697,0.733 -0.099,1.189 -0.284,2.17 -0.617,3.017 -0.154,0.132 -0.334,0.27 -0.541,0.402 z m 1.495,0 c -0.01,-0.043 -0.015,-0.089 -0.015,-0.137 0,-0.339 0.274,-0.614 0.612,-0.614 0.339,0 0.613,0.275 0.613,0.614 0,0.048 -0.005,0.094 -0.015,0.138 L 36.379,0 c 0.008,-0.043 0.012,-0.089 0.012,-0.137 0,-0.436 -0.353,-0.79 -0.789,-0.79 -0.435,0 -0.788,0.354 -0.788,0.79 0,0.048 0.004,0.094 0.012,0.14 z m 1.962,0 c 0.005,-0.047 0.007,-0.092 0.007,-0.137 0,-0.354 -0.134,-0.675 -0.353,-0.918 0.504,-0.203 0.86,-0.696 0.86,-1.272 0,-0.209 -0.046,-0.406 -0.13,-0.582 0.383,-0.295 0.552,-0.766 0.479,-1.24 h -0.272 c 0.094,0.433 -0.066,0.848 -0.554,1.156 0.132,0.223 0.215,0.397 0.215,0.666 0,0.736 -0.547,1.015 -1.156,1.143 0.366,0.285 0.649,0.531 0.649,1.047 0,0.047 -0.002,0.092 -0.007,0.135 z M 0.092,-4.149 c 0.039,0.031 0.081,0.057 0.124,0.081 0.448,0.246 0.978,0.196 1.366,-0.085 L 1.196,-4.149 C 0.961,-4.065 0.699,-4.063 0.454,-4.152 Z m 3.472,0 c -0.005,0.622 0.41,1.187 1.036,1.348 0.737,0.19 1.488,-0.255 1.678,-0.992 0.02,-0.081 0.033,-0.162 0.039,-0.242 C 6.35,-4.076 6.384,-4.113 6.42,-4.147 L 6.073,-4.149 C 6.069,-4.142 6.064,-4.136 6.059,-4.13 6.056,-4.037 6.047,-3.947 6.024,-3.857 5.871,-3.26 5.262,-2.901 4.665,-3.054 4.155,-3.185 3.819,-3.648 3.826,-4.152 Z m 5.557,0 c 0.131,0.315 0.185,0.667 0.146,1.026 l 0.251,0.064 c 0.202,-0.487 0.575,-0.868 1.029,-1.089 L 10.051,-4.149 C 9.851,-4.003 9.673,-3.822 9.527,-3.614 9.506,-3.798 9.465,-3.976 9.404,-4.147 Z m 3.58,0 -0.053,0.139 c 0.48,0.307 0.775,0.719 0.964,1.251 l 0.158,-0.006 c 0.15,0 0.273,0.033 0.415,0.075 0.317,-0.468 0.707,-0.794 1.251,-0.97 l -0.03,-0.255 C 14.732,-3.973 14.062,-4.05 13.4,-4.147 Z m 10.604,0 c -0.663,0.099 -1.332,0.176 -2.006,0.234 l -0.03,0.255 c 0.545,0.176 0.935,0.502 1.252,0.971 0.142,-0.043 0.264,-0.076 0.414,-0.076 l 0.158,0.006 c 0.189,-0.532 0.484,-0.944 0.965,-1.251 l -0.053,-0.139 z m 2.853,0 c 0.454,0.222 0.827,0.603 1.029,1.09 l 0.251,-0.064 c -0.039,-0.359 0.015,-0.711 0.146,-1.03 l -0.283,0.004 c -0.06,0.173 -0.102,0.352 -0.123,0.535 -0.146,-0.208 -0.323,-0.389 -0.524,-0.537 z m 4.127,0 c 0.036,0.036 0.071,0.073 0.103,0.114 0.006,0.08 0.019,0.161 0.039,0.242 0.19,0.736 0.941,1.182 1.678,0.992 0.627,-0.16 1.042,-0.726 1.037,-1.345 l -0.263,-0.003 c 0.009,0.501 -0.329,0.964 -0.839,1.095 -0.596,0.153 -1.205,-0.206 -1.359,-0.803 -0.022,-0.09 -0.031,-0.18 -0.035,-0.273 -0.005,-0.006 -0.009,-0.012 -0.014,-0.018 z m 4.839,0 c 0.387,0.277 0.918,0.327 1.365,0.081 0.043,-0.024 0.085,-0.05 0.124,-0.078 l -0.362,-0.003 c -0.244,0.086 -0.506,0.084 -0.741,0.002 z m -16.901,2.191 h 0.259 c 0.101,-0.71 0.557,-1.307 1.182,-1.607 l -0.062,-0.248 c -0.414,0.015 -0.831,0.023 -1.25,0.023 -0.418,0 -0.834,-0.008 -1.249,-0.023 l -0.062,0.249 c 0.626,0.299 1.081,0.896 1.182,1.606 m 0.129,-0.541 c -0.156,-0.413 -0.425,-0.772 -0.77,-1.038 0.256,0.006 0.513,0.009 0.77,0.009 0.258,0 0.515,-0.003 0.771,-0.009 -0.344,0.266 -0.614,0.625 -0.771,1.038 m -4.559,-0.528 c -0.133,-0.332 -0.34,-0.635 -0.601,-0.886 0.558,0.084 1.121,0.155 1.688,0.212 -0.316,0.178 -0.592,0.42 -0.804,0.709 -0.092,-0.021 -0.187,-0.033 -0.283,-0.035 m 9.112,0.001 c -0.094,0.002 -0.187,0.013 -0.275,0.033 -0.213,-0.288 -0.489,-0.53 -0.805,-0.708 0.566,-0.057 1.13,-0.128 1.688,-0.212 -0.246,0.237 -0.444,0.519 -0.577,0.829 z m 5.128,2.736 c -0.589,0.151 -1.189,-0.204 -1.34,-0.793 -0.152,-0.589 0.203,-1.188 0.792,-1.34 0.589,-0.152 1.188,0.203 1.34,0.792 0.152,0.589 -0.203,1.189 -0.792,1.341 m 0.044,0.17 c 0.682,-0.176 1.094,-0.871 0.918,-1.555 -0.176,-0.683 -0.87,-1.094 -1.554,-0.918 -0.683,0.176 -1.094,0.871 -0.918,1.554 0.175,0.683 0.871,1.094 1.554,0.919 m 8.033,-1.595 c -0.34,0 -0.614,-0.274 -0.614,-0.612 0,-0.34 0.275,-0.614 0.614,-0.614 0.338,0 0.612,0.274 0.612,0.614 0,0.338 -0.274,0.612 -0.612,0.612 m 0,0.176 c 0.435,0 0.788,-0.353 0.788,-0.788 0,-0.437 -0.353,-0.789 -0.788,-0.789 -0.437,0 -0.789,0.352 -0.789,0.789 0,0.435 0.353,0.788 0.789,0.788 M 9.221,-2.423 c 0.588,0.152 0.944,0.751 0.792,1.34 C 9.861,-0.494 9.261,-0.139 8.672,-0.29 8.083,-0.442 7.729,-1.042 7.88,-1.631 8.031,-2.22 8.632,-2.575 9.221,-2.423 m 0.044,-0.17 c -0.684,-0.176 -1.38,0.235 -1.555,0.918 -0.176,0.684 0.235,1.379 0.919,1.555 0.682,0.175 1.378,-0.236 1.554,-0.919 0.176,-0.683 -0.236,-1.378 -0.918,-1.554 M 0.596,-2.941 c 0.338,0 0.613,0.274 0.613,0.614 0,0.338 -0.275,0.612 -0.613,0.612 -0.339,0 -0.613,-0.274 -0.613,-0.612 0,-0.34 0.274,-0.614 0.613,-0.614 m 0,-0.175 c -0.436,0 -0.789,0.352 -0.789,0.789 0,0.435 0.353,0.788 0.789,0.788 0.435,0 0.788,-0.353 0.788,-0.788 0,-0.437 -0.352,-0.789 -0.788,-0.789"
         style="fill:#004c98;fill-opacity:1;fill-rule:nonzero;stroke:none"
         id="path72"
         inkscape:connector-curvature="0" />
    </g>
    <g
       id="g74"
       transform="matrix(1.1340758,0,0,1.1340758,376.81106,811.02665)">
      <path
         d="m 0,0 c -0.132,-0.18 -0.21,-0.405 -0.21,-0.648 0,-0.279 0.102,-0.466 0.214,-0.713 -0.184,0.05 -0.366,0.113 -0.559,0.113 -0.613,0 -1.11,-0.496 -1.11,-1.11 0,-0.339 0.13,-0.53 0.308,-0.796 -0.6,-0.057 -1.15,-0.336 -1.216,-0.989 l -0.262,10e-4 c 0.057,0.583 0.482,1.06 1.041,1.195 -0.085,0.179 -0.133,0.379 -0.133,0.589 0,0.758 0.614,1.372 1.372,1.372 l 0.127,-0.006 c -0.029,0.11 -0.044,0.225 -0.044,0.344 0,0.234 0.058,0.453 0.161,0.646 z m 1.348,0 c 0.205,-0.142 0.339,-0.379 0.339,-0.648 0,-0.436 -0.352,-0.789 -0.788,-0.789 -0.436,0 -0.789,0.353 -0.789,0.789 0,0.269 0.135,0.506 0.34,0.648 z M 3.135,0 C 3.008,-0.087 2.853,-0.139 2.686,-0.139 c -0.166,0 -0.321,0.052 -0.448,0.141 z m 2.848,0 c 0.246,-0.131 0.413,-0.392 0.413,-0.691 0,-0.435 -0.353,-0.789 -0.789,-0.789 -0.435,0 -0.788,0.354 -0.788,0.789 0,0.299 0.167,0.56 0.413,0.694 z M 8.147,0 C 7.919,-0.37 7.722,-0.765 7.559,-1.177 c 2.129,1.104 4.865,1.373 7.194,1.033 V 0 h 0.261 v -0.562 c -0.12,-0.178 -0.188,-0.354 -0.188,-0.571 0,-0.639 0.474,-0.831 0.954,-1.043 0.48,0.212 0.954,0.404 0.954,1.043 0,0.2 -0.061,0.385 -0.166,0.537 L 16.556,0 h 0.251 v -0.145 c 2.335,0.329 5.063,0.083 7.193,-1.03 -0.164,0.412 -0.361,0.806 -0.589,1.179 L 23.722,0 c 0.577,-1 0.95,-2.163 1.08,-3.436 -0.392,-0.153 -0.538,-0.327 -0.717,-0.705 l -1.022,-0.001 c 0.211,0.161 0.488,0.256 0.852,0.251 0.158,0.303 0.364,0.504 0.606,0.622 -0.072,0.638 -0.216,1.257 -0.427,1.843 -2.192,1.217 -5.061,1.433 -7.287,1.104 v -0.161 c 0.12,-0.188 0.189,-0.411 0.189,-0.65 0,-0.38 -0.175,-0.718 -0.447,-0.941 0.413,-0.144 0.734,-0.444 0.862,-0.994 0.651,-0.157 0.931,-0.572 1.021,-1.071 l -0.264,-0.003 c -0.095,0.468 -0.383,0.735 -0.98,0.852 -0.173,0.921 -0.638,0.978 -1.408,1.105 -0.77,-0.127 -1.236,-0.184 -1.408,-1.105 -0.598,-0.117 -0.886,-0.384 -0.981,-0.854 l -0.264,0.002 c 0.09,0.502 0.371,0.917 1.021,1.074 0.128,0.55 0.449,0.85 0.862,0.994 -0.272,0.223 -0.446,0.561 -0.446,0.941 0,0.239 0.07,0.463 0.189,0.65 v 0.161 C 12.526,0.007 9.657,-0.209 7.465,-1.426 7.255,-2.012 7.11,-2.631 7.038,-3.269 7.28,-3.387 7.487,-3.588 7.645,-3.891 c 0.364,0.005 0.641,-0.09 0.851,-0.252 l -1.022,10e-4 c -0.178,0.38 -0.325,0.553 -0.717,0.706 0.131,1.276 0.505,2.441 1.084,3.44 z m 18.181,0 c 0.245,-0.131 0.413,-0.392 0.413,-0.691 0,-0.435 -0.354,-0.789 -0.788,-0.789 -0.436,0 -0.789,0.354 -0.789,0.789 0,0.3 0.167,0.56 0.413,0.694 z m 2.994,0 c -0.128,-0.087 -0.283,-0.139 -0.449,-0.139 -0.167,0 -0.322,0.052 -0.449,0.141 z m 1.787,0 c 0.206,-0.142 0.34,-0.379 0.34,-0.648 0,-0.436 -0.353,-0.789 -0.788,-0.789 -0.436,0 -0.789,0.353 -0.789,0.789 0,0.269 0.134,0.506 0.34,0.648 z m 0.762,0 c 0.103,-0.195 0.161,-0.414 0.161,-0.648 0,-0.119 -0.016,-0.234 -0.044,-0.344 l 0.127,0.006 c 0.757,0 1.371,-0.614 1.371,-1.372 0,-0.21 -0.048,-0.41 -0.132,-0.589 0.559,-0.135 0.984,-0.612 1.041,-1.197 l -0.262,0.002 c -0.067,0.651 -0.615,0.931 -1.215,0.987 0.177,0.267 0.306,0.458 0.306,0.797 0,0.614 -0.497,1.11 -1.109,1.11 -0.194,0 -0.377,-0.063 -0.561,-0.113 0.113,0.247 0.216,0.434 0.216,0.713 0,0.243 -0.078,0.468 -0.21,0.651 z M -2.246,-4.142 c 0.066,0.371 0.388,0.651 0.777,0.651 0.387,0 0.71,-0.28 0.776,-0.648 l -0.179,-0.003 c -0.063,0.273 -0.307,0.475 -0.597,0.475 -0.292,0 -0.535,-0.202 -0.598,-0.474 z m 2.508,0 c 0.666,1.531 1.844,2.587 3.943,3.649 0.297,-0.108 0.292,-0.153 0.292,-0.198 0,-0.516 0.285,-0.762 0.651,-1.048 -0.61,-0.127 -1.159,-0.406 -1.159,-1.144 0,-0.612 0.412,-0.95 0.944,-1.108 C 4.905,-4.046 4.881,-4.096 4.86,-4.143 L 4.549,-4.142 C 4.144,-3.962 3.841,-3.595 3.753,-3.151 3.095,-3.297 2.35,-3.493 1.746,-3.73 1.442,-3.85 1.174,-3.992 0.941,-4.141 L 0.629,-4.142 c 0.324,0.235 0.674,0.426 1.053,0.575 0.617,0.243 1.378,0.442 2.048,0.591 l -0.003,0.093 c 0,0.578 0.357,1.072 0.862,1.274 -0.203,0.224 -0.333,0.515 -0.352,0.837 -1.885,-0.98 -3.005,-1.984 -3.662,-3.367 z m 14.253,0 c 0.083,0.627 0.618,1.11 1.265,1.11 0.647,0 1.182,-0.483 1.265,-1.106 l -0.177,-0.004 c -0.081,0.529 -0.537,0.934 -1.088,0.934 -0.551,0 -1.008,-0.405 -1.088,-0.933 z m 12.185,0 c -0.021,0.046 -0.046,0.096 -0.074,0.151 0.532,0.158 0.946,0.496 0.946,1.108 0,0.738 -0.551,1.017 -1.161,1.145 0.367,0.285 0.651,0.53 0.651,1.047 0,0.045 -0.003,0.088 -0.009,0.131 l 0.249,0.071 c 2.084,-1.04 3.285,-2.116 3.971,-3.652 l -0.288,-0.001 c -0.655,1.377 -1.773,2.393 -3.662,3.407 -0.01,-0.337 -0.142,-0.641 -0.353,-0.874 0.506,-0.202 0.863,-0.696 0.863,-1.274 L 27.83,-2.977 c 0.682,-0.152 1.404,-0.337 2.047,-0.59 0.417,-0.164 0.769,-0.368 1.06,-0.577 l -0.321,0.002 c -0.233,0.151 -0.5,0.293 -0.803,0.412 -0.604,0.237 -1.349,0.432 -2.006,0.579 -0.088,-0.444 -0.392,-0.81 -0.796,-0.988 z m 5.553,0 c 0.066,0.371 0.389,0.651 0.777,0.651 0.387,0 0.71,-0.28 0.776,-0.648 l -0.179,-0.003 c -0.063,0.273 -0.307,0.475 -0.597,0.475 -0.292,0 -0.535,-0.202 -0.598,-0.474 z m -5.792,1.872 c -0.338,0 -0.613,-0.274 -0.613,-0.613 0,-0.338 0.275,-0.612 0.613,-0.612 0.339,0 0.613,0.274 0.613,0.612 0,0.339 -0.274,0.613 -0.613,0.613 m 0,0.176 c 0.436,0 0.789,-0.353 0.789,-0.789 0,-0.435 -0.353,-0.788 -0.789,-0.788 -0.435,0 -0.789,0.353 -0.789,0.788 0,0.436 0.354,0.789 0.789,0.789 m -0.508,2.016 c -0.339,0 -0.614,-0.274 -0.614,-0.613 0,-0.338 0.275,-0.613 0.614,-0.613 0.337,0 0.612,0.275 0.612,0.613 0,0.339 -0.275,0.613 -0.612,0.613 m 6.162,-1.666 c -0.339,0 -0.614,-0.275 -0.614,-0.614 0,-0.338 0.275,-0.612 0.614,-0.612 0.339,0 0.613,0.274 0.613,0.612 0,0.339 -0.274,0.614 -0.613,0.614 m 0,0.175 c 0.436,0 0.788,-0.353 0.788,-0.789 0,-0.435 -0.352,-0.788 -0.788,-0.788 -0.436,0 -0.79,0.353 -0.79,0.788 0,0.436 0.354,0.789 0.79,0.789 m -1.454,1.534 c -0.339,0 -0.613,-0.275 -0.613,-0.613 0,-0.339 0.274,-0.613 0.613,-0.613 0.338,0 0.612,0.274 0.612,0.613 0,0.338 -0.274,0.613 -0.612,0.613 M 5.098,-3.495 c 0.339,0 0.614,0.274 0.614,0.612 0,0.339 -0.275,0.613 -0.614,0.613 -0.338,0 -0.612,-0.274 -0.612,-0.613 0,-0.338 0.274,-0.612 0.612,-0.612 m 0,-0.176 c -0.435,0 -0.788,0.353 -0.788,0.788 0,0.436 0.353,0.789 0.788,0.789 0.436,0 0.789,-0.353 0.789,-0.789 0,-0.435 -0.353,-0.788 -0.789,-0.788 m 0.509,2.367 c 0.339,0 0.613,0.275 0.613,0.613 0,0.339 -0.274,0.613 -0.613,0.613 -0.338,0 -0.613,-0.274 -0.613,-0.613 0,-0.338 0.275,-0.613 0.613,-0.613 M -0.555,-2.97 c 0.339,0 0.613,0.274 0.613,0.612 0,0.339 -0.274,0.614 -0.613,0.614 -0.338,0 -0.613,-0.275 -0.613,-0.614 0,-0.338 0.275,-0.612 0.613,-0.612 m 0,-0.176 c -0.436,0 -0.788,0.353 -0.788,0.788 0,0.436 0.352,0.789 0.788,0.789 0.436,0 0.789,-0.353 0.789,-0.789 0,-0.435 -0.353,-0.788 -0.789,-0.788 m 1.454,1.885 c 0.339,0 0.613,0.274 0.613,0.613 0,0.338 -0.274,0.613 -0.613,0.613 -0.339,0 -0.613,-0.275 -0.613,-0.613 0,-0.339 0.274,-0.613 0.613,-0.613 M 15.78,-1.746 c 0.338,0 0.613,0.275 0.613,0.613 0,0.338 -0.275,0.613 -0.613,0.613 -0.339,0 -0.613,-0.275 -0.613,-0.613 0,-0.338 0.274,-0.613 0.613,-0.613 m 0,-0.176 c -0.436,0 -0.789,0.354 -0.789,0.789 0,0.435 0.353,0.788 0.789,0.788 0.435,0 0.789,-0.353 0.789,-0.788 0,-0.435 -0.354,-0.789 -0.789,-0.789"
         style="fill:#004c98;fill-opacity:1;fill-rule:nonzero;stroke:none"
         id="path76"
         inkscape:connector-curvature="0" />
    </g>
    <g
       id="g78"
       transform="matrix(1.1340758,0,0,1.1340758,376.45814,811.02665)">
      <path
         d="m 0,0 c 0.231,0.43 0.686,0.724 1.211,0.724 0.145,0 0.284,-0.023 0.415,-0.065 0.005,0.754 0.618,1.363 1.372,1.363 0.228,0 0.443,-0.057 0.632,-0.155 0.19,0.529 0.696,0.907 1.29,0.907 0.428,0 0.809,-0.196 1.06,-0.503 0.24,0.211 0.555,0.339 0.9,0.339 L 6.975,2.606 c -0.02,0.093 -0.03,0.188 -0.03,0.287 0,0.758 0.614,1.372 1.372,1.372 0.18,0 0.351,-0.036 0.508,-0.099 0.012,0.747 0.622,1.349 1.371,1.349 0.241,0 0.468,-0.064 0.665,-0.173 0.192,0.523 0.695,0.897 1.286,0.897 0.318,0 0.611,-0.108 0.843,-0.289 0.243,0.384 0.67,0.639 1.159,0.639 0.125,0 0.246,-0.018 0.361,-0.05 0.224,0.236 0.5,0.422 0.809,0.539 l 0.14,0.049 v 0.716 h -0.936 v 1.213 h 0.936 v 0.843 h 1.264 V 9.056 h 0.936 V 7.843 H 16.723 V 7.127 l 0.14,-0.049 c 0.309,-0.117 0.585,-0.303 0.809,-0.539 0.114,0.032 0.235,0.05 0.361,0.05 0.489,0 0.916,-0.255 1.159,-0.639 0.232,0.181 0.525,0.289 0.842,0.289 0.592,0 1.094,-0.374 1.287,-0.897 0.197,0.109 0.423,0.173 0.664,0.173 0.751,0 1.359,-0.602 1.372,-1.349 0.157,0.063 0.328,0.099 0.508,0.099 0.758,0 1.372,-0.614 1.372,-1.372 0,-0.099 -0.011,-0.194 -0.031,-0.287 l 0.095,0.004 c 0.345,0 0.66,-0.128 0.901,-0.339 0.251,0.306 0.632,0.503 1.06,0.503 0.594,0 1.099,-0.378 1.291,-0.907 0.188,0.099 0.402,0.155 0.631,0.155 0.754,0 1.367,-0.609 1.372,-1.363 0.131,0.042 0.271,0.065 0.416,0.065 0.524,0 0.979,-0.294 1.21,-0.726 L 31.871,0 c -0.202,0.281 -0.529,0.462 -0.899,0.462 -0.297,0 -0.475,-0.107 -0.729,-0.238 0.02,0.133 0.051,0.287 0.051,0.426 0,0.613 -0.497,1.11 -1.11,1.11 -0.338,0 -0.534,-0.13 -0.795,-0.314 -0.128,0.581 -0.452,1.066 -1.127,1.066 -0.496,0 -0.778,-0.27 -1.026,-0.655 -0.266,0.293 -0.511,0.491 -0.935,0.491 -0.168,0 -0.33,-0.048 -0.492,-0.086 0.086,0.219 0.166,0.39 0.166,0.631 0,0.613 -0.496,1.11 -1.11,1.11 -0.35,0 -0.55,-0.147 -0.831,-0.321 0.022,0.137 0.061,0.313 0.061,0.461 0,0.613 -0.496,1.11 -1.11,1.11 -0.354,0 -0.557,-0.144 -0.824,-0.342 -0.129,0.581 -0.45,1.066 -1.127,1.066 -0.411,0 -0.646,-0.186 -0.917,-0.458 -0.218,0.463 -0.52,0.808 -1.084,0.808 -0.162,0 -0.292,-0.038 -0.443,-0.089 -0.343,0.392 -0.647,0.565 -1.129,0.688 v 1.179 h 0.936 v 0.689 h -0.936 v 0.843 h -0.74 V 8.794 H 14.785 V 8.105 h 0.936 V 6.926 C 15.238,6.803 14.935,6.63 14.592,6.238 14.441,6.289 14.311,6.327 14.149,6.327 13.585,6.327 13.282,5.982 13.065,5.519 12.794,5.791 12.559,5.977 12.147,5.977 11.47,5.977 11.149,5.492 11.02,4.91 10.754,5.11 10.551,5.253 10.196,5.253 9.583,5.253 9.087,4.756 9.087,4.143 9.087,3.996 9.13,3.814 9.154,3.68 8.871,3.854 8.668,4.003 8.317,4.003 7.704,4.003 7.206,3.506 7.206,2.893 7.206,2.653 7.288,2.48 7.373,2.262 7.211,2.3 7.049,2.348 6.88,2.348 6.457,2.348 6.211,2.15 5.946,1.857 5.698,2.242 5.416,2.512 4.92,2.512 4.245,2.512 3.921,2.029 3.795,1.447 3.534,1.629 3.336,1.76 2.998,1.76 2.386,1.76 1.888,1.263 1.888,0.65 1.888,0.512 1.923,0.355 1.944,0.224 1.692,0.352 1.505,0.462 1.211,0.462 0.84,0.462 0.513,0.281 0.311,0.003 Z M 0.761,0 C 0.889,0.089 1.043,0.141 1.211,0.141 1.377,0.141 1.532,0.089 1.659,0 Z m 1.788,0 c -0.206,0.144 -0.34,0.381 -0.34,0.65 0,0.436 0.353,0.789 0.789,0.789 0.435,0 0.788,-0.353 0.788,-0.789 0,-0.269 -0.135,-0.506 -0.34,-0.648 z m 2.994,0 c 0.111,0.063 0.239,0.098 0.375,0.098 0.136,0 0.265,-0.035 0.376,-0.095 z m 2.61,0 c 1.366,2.359 3.872,3.788 7.006,3.558 -0.009,-0.081 -0.022,-0.164 -0.022,-0.245 0,-0.218 0.068,-0.394 0.189,-0.572 V 1.661 C 15.205,1.483 15.137,1.308 15.137,1.09 c 0,-0.218 0.068,-0.394 0.189,-0.571 V 0 h -0.262 v 0.439 c -0.119,0.188 -0.189,0.411 -0.189,0.651 0,0.24 0.07,0.462 0.189,0.65 V 2.662 C 14.945,2.85 14.875,3.073 14.875,3.313 11.997,3.478 9.737,2.091 8.459,0.002 Z m 8.714,0 -0.011,0.519 c 0.122,0.177 0.189,0.353 0.189,0.571 0,0.218 -0.067,0.393 -0.189,0.571 v 1.081 c 0.122,0.177 0.189,0.353 0.189,0.571 0,0.083 -0.014,0.163 -0.025,0.245 3.138,0.23 5.648,-1.201 7.013,-3.562 L 23.722,0 c -1.278,2.091 -3.538,3.478 -6.415,3.313 0,-0.239 -0.069,-0.463 -0.189,-0.651 V 1.74 c 0.12,-0.188 0.189,-0.411 0.189,-0.65 0,-0.239 -0.069,-0.463 -0.189,-0.651 V 0 Z m 9.021,0 c 0.112,0.063 0.24,0.098 0.376,0.098 0.135,0 0.263,-0.035 0.375,-0.095 z m 2.847,0 c -0.205,0.144 -0.339,0.381 -0.339,0.65 0,0.436 0.352,0.789 0.788,0.789 0.435,0 0.789,-0.353 0.789,-0.789 0,-0.269 -0.135,-0.506 -0.34,-0.648 z m 1.788,0 c 0.127,0.089 0.282,0.141 0.449,0.141 0.167,0 0.321,-0.052 0.449,-0.141 z m -1.339,1.263 c -0.339,0 -0.612,-0.274 -0.612,-0.613 0,-0.338 0.273,-0.613 0.612,-0.613 0.338,0 0.613,0.275 0.613,0.613 0,0.339 -0.275,0.613 -0.613,0.613 m -1.922,0.752 c -0.339,0 -0.613,-0.274 -0.613,-0.613 0,-0.339 0.274,-0.613 0.613,-0.613 0.339,0 0.613,0.274 0.613,0.613 0,0.339 -0.274,0.613 -0.613,0.613 m 0,0.175 c 0.435,0 0.789,-0.352 0.789,-0.788 0,-0.436 -0.353,-0.789 -0.789,-0.789 -0.436,0 -0.789,0.353 -0.789,0.789 0,0.436 0.353,0.788 0.789,0.788 M 25.301,1.851 c -0.338,0 -0.613,-0.274 -0.613,-0.613 0,-0.339 0.275,-0.613 0.613,-0.613 0.338,0 0.613,0.274 0.613,0.613 0,0.339 -0.275,0.613 -0.613,0.613 m 0,0.176 c 0.435,0 0.789,-0.353 0.789,-0.789 0,-0.436 -0.354,-0.788 -0.789,-0.788 -0.435,0 -0.789,0.352 -0.789,0.788 0,0.436 0.354,0.789 0.789,0.789 m -1.436,1.479 c -0.338,0 -0.612,-0.275 -0.612,-0.613 0,-0.339 0.274,-0.613 0.612,-0.613 0.339,0 0.613,0.274 0.613,0.613 0,0.338 -0.274,0.613 -0.613,0.613 m 0,0.176 c 0.436,0 0.789,-0.354 0.789,-0.789 0,-0.436 -0.353,-0.789 -0.789,-0.789 -0.435,0 -0.788,0.353 -0.788,0.789 0,0.435 0.353,0.789 0.788,0.789 m -1.88,1.074 c -0.338,0 -0.612,-0.274 -0.612,-0.613 0,-0.338 0.274,-0.613 0.612,-0.613 0.339,0 0.614,0.275 0.614,0.613 0,0.339 -0.275,0.613 -0.614,0.613 m 0,0.176 c 0.436,0 0.789,-0.353 0.789,-0.789 0,-0.436 -0.353,-0.788 -0.789,-0.788 -0.435,0 -0.787,0.353 -0.787,0.788 0,0.436 0.352,0.789 0.787,0.789 M 20.034,5.48 c -0.338,0 -0.612,-0.274 -0.612,-0.612 0,-0.339 0.274,-0.613 0.612,-0.613 0.339,0 0.614,0.274 0.614,0.613 0,0.338 -0.275,0.612 -0.614,0.612 m 0,0.176 c 0.436,0 0.79,-0.352 0.79,-0.788 0,-0.436 -0.354,-0.789 -0.79,-0.789 -0.436,0 -0.787,0.353 -0.787,0.789 0,0.435 0.351,0.788 0.787,0.788 M 18.033,5.83 c -0.338,0 -0.612,-0.274 -0.612,-0.613 0,-0.339 0.274,-0.613 0.612,-0.613 0.34,0 0.614,0.274 0.614,0.613 0,0.339 -0.274,0.613 -0.614,0.613 m 0,0.176 c 0.437,0 0.79,-0.353 0.79,-0.789 0,-0.436 -0.353,-0.788 -0.79,-0.788 -0.435,0 -0.787,0.352 -0.787,0.788 0,0.436 0.352,0.789 0.787,0.789 M 2.998,0.037 c 0.338,0 0.612,0.275 0.612,0.613 0,0.339 -0.274,0.613 -0.612,0.613 -0.339,0 -0.614,-0.274 -0.614,-0.613 0,-0.338 0.275,-0.613 0.614,-0.613 M 4.92,0.789 c 0.338,0 0.613,0.274 0.613,0.613 0,0.339 -0.274,0.613 -0.613,0.613 -0.339,0 -0.613,-0.274 -0.613,-0.613 0,-0.339 0.274,-0.613 0.613,-0.613 m 0,-0.176 c -0.436,0 -0.789,0.353 -0.789,0.789 0,0.436 0.353,0.788 0.789,0.788 0.435,0 0.788,-0.352 0.788,-0.788 0,-0.436 -0.352,-0.789 -0.788,-0.789 m 1.96,0.012 c 0.34,0 0.614,0.274 0.614,0.613 0,0.339 -0.275,0.613 -0.614,0.613 -0.338,0 -0.612,-0.274 -0.612,-0.613 0,-0.339 0.274,-0.613 0.612,-0.613 m 0,-0.175 c -0.435,0 -0.788,0.352 -0.788,0.788 0,0.436 0.353,0.789 0.788,0.789 0.436,0 0.789,-0.353 0.789,-0.789 C 7.669,0.802 7.316,0.45 6.88,0.45 m 1.437,1.83 c 0.338,0 0.612,0.274 0.612,0.613 0,0.338 -0.274,0.613 -0.612,0.613 -0.339,0 -0.614,-0.275 -0.614,-0.613 0,-0.338 0.275,-0.613 0.614,-0.613 m 0,-0.176 c -0.435,0 -0.789,0.353 -0.789,0.789 0,0.435 0.354,0.789 0.789,0.789 0.435,0 0.788,-0.354 0.788,-0.789 0,-0.436 -0.353,-0.789 -0.788,-0.789 m 1.879,1.426 c 0.339,0 0.613,0.275 0.613,0.613 0,0.339 -0.274,0.613 -0.613,0.613 -0.338,0 -0.613,-0.274 -0.613,-0.613 0,-0.338 0.275,-0.613 0.613,-0.613 m 0,-0.175 c -0.435,0 -0.788,0.352 -0.788,0.788 0,0.436 0.353,0.789 0.788,0.789 0.436,0 0.789,-0.353 0.789,-0.789 0,-0.436 -0.353,-0.788 -0.789,-0.788 m 1.951,0.9 c 0.339,0 0.613,0.274 0.613,0.613 0,0.338 -0.274,0.612 -0.613,0.612 -0.337,0 -0.612,-0.274 -0.612,-0.612 0,-0.339 0.275,-0.613 0.612,-0.613 m 0,-0.176 c -0.434,0 -0.788,0.353 -0.788,0.789 0,0.435 0.354,0.788 0.788,0.788 0.436,0 0.789,-0.353 0.789,-0.788 0,-0.436 -0.353,-0.789 -0.789,-0.789 m 3.944,-3.602 c 0.339,0 0.613,0.274 0.613,0.613 0,0.338 -0.274,0.613 -0.613,0.613 -0.339,0 -0.613,-0.275 -0.613,-0.613 0,-0.339 0.274,-0.613 0.613,-0.613 m 0,-0.176 c -0.436,0 -0.789,0.353 -0.789,0.789 0,0.435 0.353,0.789 0.789,0.789 0.436,0 0.789,-0.354 0.789,-0.789 0,-0.436 -0.353,-0.789 -0.789,-0.789 m 0,2.399 c 0.339,0 0.613,0.274 0.613,0.613 0,0.338 -0.274,0.613 -0.613,0.613 -0.339,0 -0.613,-0.275 -0.613,-0.613 0,-0.339 0.274,-0.613 0.613,-0.613 m 0,-0.176 c -0.436,0 -0.789,0.353 -0.789,0.789 0,0.435 0.353,0.788 0.789,0.788 0.436,0 0.789,-0.353 0.789,-0.788 0,-0.436 -0.353,-0.789 -0.789,-0.789 m -1.942,2.08 c 0.337,0 0.612,0.274 0.612,0.613 0,0.339 -0.275,0.613 -0.612,0.613 -0.339,0 -0.614,-0.274 -0.614,-0.613 0,-0.338 0.275,-0.613 0.614,-0.613 m 0,-0.175 c -0.436,0 -0.79,0.352 -0.79,0.788 0,0.436 0.354,0.789 0.79,0.789 0.434,0 0.788,-0.353 0.788,-0.789 0,-0.436 -0.354,-0.788 -0.788,-0.788"
         style="fill:#004c98;fill-opacity:1;fill-rule:nonzero;stroke:none"
         id="path80"
         inkscape:connector-curvature="0" />
    </g>
  </g>
</svg>
