<?xml version="1.0" encoding="utf-8"?>
<!-- Generator: Adobe Illustrator 24.3.0, SVG Export Plug-In . SVG Version: 6.00 Build 0)  -->
<svg version="1.0" id="katman_1" xmlns="http://www.w3.org/2000/svg" xmlns:xlink="http://www.w3.org/1999/xlink" x="0px" y="0px"
	 viewBox="0 0 872 642" style="enable-background:new 0 0 872 642;" xml:space="preserve">
<style type="text/css">
	.st0{fill:#003E81;}
	.st1{fill:#FFFFFF;}
	.st2{fill:#199FD6;}
</style>
<circle class="st0" cx="436" cy="321" r="283"/>
<path class="st1" d="M227.69,321c0-115.04,93.26-208.3,208.31-208.31c115.04,0,208.3,93.26,208.3,208.31
	c0,115.04-93.26,208.3-208.3,208.3C320.96,529.3,227.7,436.04,227.69,321z"/>
<path class="st2" d="M294.66,179.66c-36.18,36.18-58.55,86.13-58.55,141.34c0,55.21,22.37,105.16,58.55,141.34
	c36.18,36.18,86.13,58.54,141.34,58.55c55.21,0,105.16-22.37,141.34-58.55c36.18-36.19,58.54-86.13,58.55-141.34
	c0-55.21-22.37-105.16-58.55-141.34c-36.19-36.18-86.13-58.55-141.34-58.55C380.79,121.11,330.84,143.48,294.66,179.66z"/>
<path class="st1" d="M318.9,424.94c20.52-2.39,30.09-4.79,30.09-27.35V235.52c-19.15-23.59-24.62-24.62-29.06-24.62v-8.55h72.14
	l118.64,146h0.68v-103.6c0-20.51-4.1-31.8-31.8-33.85v-8.55h73.51v8.55c-24.62,3.08-26.67,10.94-26.67,27.35v201.39h-9.57
	L364.71,254.33h-0.68v136.76c0,24.62,7.18,31.11,32.48,33.85v8.55H318.9L318.9,424.94L318.9,424.94z"/>
</svg>
